<svg width="474" height="48" viewBox="0 0 474 48" fill="none" xmlns="http://www.w3.org/2000/svg">
<path d="M5.64099 41.2992L18.8487 10.3311L21.6504 6.42877L22.5008 6.22865L23.0512 5.42819L23.9017 5.32813L24.2018 5.52824L24.502 5.57827L24.9023 5.97851L26.4532 6.92906L28.0541 8.47997L29.3549 12.5323L30.0052 18.1356L30.7557 31.7936L30.6556 32.2939L30.7056 34.4952L30.4555 34.6953L30.3554 35.1956L30.9058 34.7453L30.3054 35.6459L30.6056 35.6959V36.6464L30.5055 37.0467L30.6056 37.3969L30.4055 37.4969L30.5055 37.8471L30.3554 37.9972L30.3054 38.2974H30.6556L30.5055 39.1979L30.2554 39.4981L30.7056 39.5481L30.5556 40.4487L30.1553 41.4993L30.4555 41.6994L30.1053 42.7L29.7051 43.1002L29.3048 43.0502L28.8546 43.6505L28.7545 43.5004L28.1542 43.4504L27.4037 43.9507L25.9028 43.7506L25.6027 43.9007L25.3525 43.7006L25.2024 43.4504L24.9523 43.8006L24.6521 44.0508L24.502 43.7506L24.2018 44.0007L23.3013 43.9007L22.5509 44.2509L22.1506 44.2009L21.6504 43.5505L21.9505 38.6476L21.6003 37.9472L21.5503 38.3975H21.3001L20.9499 38.4975L20.6998 38.4475L20.0994 38.6976L20.0494 38.5475L17.9982 39.0478L15.997 38.7977L15.6969 39.248L15.4467 39.9984L14.7463 41.2992L14.6963 41.7994L14.246 42.8L13.8958 44.0007L13.1954 44.8012L12.2949 45.3015L10.9941 45.5016L9.09301 45.2515L7.99237 44.7512L7.49208 44.9013L6.54152 44.8012L5.9912 44.8512L5.1407 44.401L5.64099 41.2992ZM22.0506 30.4928L21.9005 23.989L19.349 30.6429L22.0506 30.4928ZM29.2048 33.9449L29.655 33.9949L29.5049 33.1944L29.2048 33.9449ZM29.2548 35.1956L29.3549 35.0455L29.605 34.9454L29.7551 35.0955L29.9052 34.3951L29.3549 34.5452L29.2548 35.1956ZM29.555 39.0979L29.605 38.7977L29.3549 38.7477L29.555 39.0979ZM29.605 32.9443H29.8051L29.9552 32.7942L29.605 32.9443ZM29.655 37.3969L29.9552 37.4469L29.7551 37.1467L29.655 37.3969Z" fill="#1AB1E5" stroke="#1AB1E5" stroke-width="0.25" stroke-miterlimit="10"/>
<path d="M32.8569 43.7506L33.1071 41.9495L32.8569 41.5993L32.4066 41.3992L33.7074 39.8983L34.8581 35.6959L38.2601 26.1903L44.914 11.6818L44.2636 11.4317L43.1629 11.6818L42.8628 11.0815L42.7627 10.6312L42.0123 10.1309L42.2124 9.63064L42.9128 8.93023L43.5632 8.12977L45.7645 6.97909L53.8692 5.92848L55.7703 5.82842L59.8227 5.92848L61.6737 6.1286L62.7744 6.17862L65.3259 7.17921L65.8262 7.77956L65.9262 8.27985L67.1269 10.3311L67.227 10.9814L68.3777 11.882L68.928 12.6824L68.3276 14.3334L67.177 15.6342L64.4754 17.5353L62.2741 19.3863L60.5231 20.3369L59.6726 20.7371L59.2223 21.1874L57.4213 22.288L60.7232 23.0885L63.825 24.9396L65.8262 28.3416L65.9763 29.3422H66.2764L66.8268 31.4434L66.6266 32.494L65.8762 34.5952L64.8256 36.1461L62.6743 37.8471L62.2241 37.9972L60.7732 39.0979L58.3218 40.1985L57.1211 40.8489L55.27 41.4993L54.8698 41.4492L53.1688 42.3498L51.918 42.7L52.0181 42.4999H51.818L51.5678 42.8L51.2677 42.5999L50.8174 42.8L50.6173 43.0002L48.2659 43.6005L47.1653 44.0007H46.5149L46.0646 44.1508H45.7645L45.3642 44.3009L45.2141 44.0508L44.6638 44.5511L44.2135 44.401H44.6638L44.8639 43.9507L44.3136 44.1008H43.9634L43.4131 44.5511L43.5131 44.2509L42.8127 44.5511L42.6126 44.3509L41.4619 44.9013L41.6621 44.501L40.3613 45.0013L40.5114 44.8512L40.7115 44.451H41.2118L41.3619 43.9007L40.5614 44.3009H40.0611L40.3113 44.0007L39.7609 44.3009L39.0105 44.2509L38.9104 43.8506L38.4101 44.1008L38.5102 43.7506H38.16L37.9099 43.9007H37.6097L36.8092 44.5511L36.2089 44.7011L36.0087 44.8512L35.0582 45.3015L35.1082 45.1514L33.9575 45.1014L33.1071 45.3515L32.8569 43.7506ZM39.3107 42.9501H39.6609L39.5108 42.8L39.3107 42.9501ZM42.8127 36.9466L46.4649 36.0461L55.27 33.1944L58.3218 31.7936L60.0728 30.743L60.7232 29.6924L60.423 28.4917H60.1228L59.0722 27.6912L52.6185 26.5906L50.6673 26.3904L49.8668 26.6906L49.0664 26.6406L48.3159 26.8407L46.765 26.9908L46.4649 28.0914L46.0646 28.5417L45.7144 29.6924L45.3142 30.3428L44.4637 32.8942L44.1135 33.1444L44.3136 33.1944L44.1135 33.8448L43.263 34.8454L43.8633 34.6453L43.6132 35.1456L43.263 35.5458L43.4131 35.7459L43.1129 36.6464L42.8628 36.7965L42.8127 36.9466ZM59.8227 12.4823L59.9227 11.982L52.0181 12.4823L51.3177 12.7325L51.0175 15.334L50.4172 17.7854L59.8227 12.4823Z" fill="#1AB1E5" stroke="#1AB1E5" stroke-width="0.25" stroke-miterlimit="10"/>
<path d="M65.2259 46.0019L73.4807 19.1862L77.5831 10.4311H76.9827L76.2823 10.6812L74.6814 10.1809L74.1811 9.68064L74.4813 8.47993L75.3818 7.52938L76.8327 6.879L80.0846 6.3787L80.4348 6.07853L81.1852 5.77835L81.4854 5.97847L82.636 5.72832L83.2364 6.07853H87.5889L91.2411 7.17917L95.1934 9.08028L95.4936 9.48052L97.5948 10.8813L97.5448 11.0815H97.7949L97.945 11.5317L98.7955 11.7819L99.0957 12.4823L99.646 13.2827L99.696 13.9832L100.046 14.3334L99.4959 16.3846L98.0451 18.2857L97.5948 18.7359L97.3947 19.1862L95.9438 20.2868L95.0933 21.1874L90.3906 24.7394L89.6401 24.9896L89.1899 25.2898L87.739 26.0402L87.0887 26.2403L86.6884 26.6906H86.1881L85.4377 27.2909H85.1375L84.1369 28.0914L83.5866 28.2415L84.0869 28.8919L84.4371 29.092L85.6878 31.6935L86.2382 33.2444L86.1381 33.9948L86.4883 33.5446L86.5884 34.195L87.0887 34.7953L87.1387 35.2956H87.4389L87.639 35.996L88.2393 36.3462L90.0904 38.2473L90.4406 38.6976L91.3912 39.348L93.7425 41.5993V42.0996L93.6925 42.4498H93.3923L93.2923 42.8L92.4918 43.0501H91.8414L90.4406 44.1508H87.4889L85.6378 43.5004L80.5348 38.3974L78.1334 34.9454L77.9333 35.2956L75.5819 42.2997L75.1317 42.9001H74.6814L74.4813 43.6505L73.6308 43.8506L72.9304 44.3009H72.6302L72.0298 44.8012H71.3795L69.7785 45.4515H69.3283L68.9781 45.9518L67.8774 46.202L65.7762 47.2026L65.476 46.7523L65.2259 46.0019ZM82.3859 21.5376L91.2911 14.8336L91.5413 13.783L90.3906 12.8325L88.3394 11.6818L86.9386 11.2315H86.2882L85.7379 12.1821L85.5377 12.8325L83.8368 16.8848L83.5366 18.0855L83.0363 19.0361L82.3859 21.5376Z" fill="#1AB1E5" stroke="#1AB1E5" stroke-width="0.25" stroke-miterlimit="10"/>
<path d="M101.747 45.9519L101.097 45.6016L98.8454 46.0519L97.7448 45.3015L96.8943 43.6505L100.847 27.6411L100.997 26.5405L102.998 19.8866L105.549 13.5829L105.95 12.8325L105.499 11.5317L107.701 10.331L109.352 8.17977L110.352 7.67948L110.752 7.87959H111.453L113.204 8.63003L115.455 8.12974L121.909 7.42933H125.311L128.313 7.87959H128.963L129.914 8.42992L129.864 8.63003L129.964 8.83015L130.064 9.88076L130.014 10.331L130.214 10.5812L129.563 11.1315H129.263L128.363 11.8819L128.663 12.032L127.812 12.1821L127.312 12.5323L127.212 12.9826L126.712 13.2828H126.412L126.311 13.733L125.961 14.0332L125.261 14.3334L124.911 14.6836H124.46L124.26 14.9837L122.559 15.5841H121.209L120.558 15.8843L118.307 16.1844L114.955 16.8348H114.655L113.754 17.185L113.404 17.5853L113.054 18.6859L112.253 20.6871L112.053 20.9873L112.003 21.3375L118.957 20.2368H122.209L123.76 20.7371L123.81 21.4375L123.71 22.0879L123.86 23.0885L123.16 24.0891L122.859 25.7901L122.509 26.0902L122.759 26.3904L122.659 26.9908L122.059 27.6411L121.209 27.9413L121.058 28.0914L119.457 28.5417L118.507 28.6918H117.406L116.656 29.042L114.955 29.2921L109.201 31.3933L107.901 38.4475L111.003 37.1967H111.403L111.553 36.9966L116.156 35.4957H117.406L118.557 34.9454L122.359 35.4957L123.36 35.7959L123.31 36.0961L122.609 36.2962L122.059 37.1967L121.859 37.3468L121.809 37.647L120.508 38.6976L120.158 38.8477L119.958 39.1979L119.508 39.348L117.606 40.2485L117.106 40.3986L115.605 41.1991L112.553 42.5499L111.703 43.2002L111.053 43.4004L107.1 45.6016L103.848 46.202L102.047 45.9519H101.747ZM122.359 25.4399L122.509 25.2898L122.409 25.1397L122.359 25.4399Z" fill="#1AB1E5" stroke="#1AB1E5" stroke-width="0.25" stroke-miterlimit="10"/>
<path d="M152.577 45.9519L151.927 45.6016L149.675 46.0519L148.575 45.3015L147.724 43.6505L151.676 27.6411L151.826 26.5405L153.828 19.8866L156.379 13.5829L156.779 12.8325L156.329 11.5317L158.53 10.331L160.181 8.17977L161.182 7.67948L161.582 7.87959H162.283L164.034 8.63003L166.285 8.12974L172.739 7.42933H176.141L179.142 7.87959H179.793L180.743 8.42992L180.693 8.63003L180.793 8.83015L180.893 9.88076L180.843 10.331L181.044 10.5812L180.393 11.1315H180.093L179.192 11.8819L179.493 12.032L178.642 12.1821L178.142 12.5323L178.042 12.9826L177.541 13.2828H177.241L177.141 13.733L176.791 14.0332L176.091 14.3334L175.74 14.6836H175.29L175.09 14.9837L173.389 15.5841H172.038L171.388 15.8843L169.137 16.1844L165.785 16.8348H165.484L164.584 17.185L164.234 17.5853L163.883 18.6859L163.083 20.6871L162.883 20.9873L162.833 21.3375L169.787 20.2368H173.039L174.59 20.7371L174.64 21.4375L174.54 22.0879L174.69 23.0885L173.989 24.0891L173.689 25.7901L173.339 26.0902L173.589 26.3904L173.489 26.9908L172.889 27.6411L172.038 27.9413L171.888 28.0914L170.287 28.5417L169.337 28.6918H168.236L167.486 29.042L165.785 29.2921L160.031 31.3933L158.73 38.4475L161.832 37.1967H162.233L162.383 36.9966L166.985 35.4957H168.236L169.387 34.9454L173.189 35.4957L174.19 35.7959L174.139 36.0961L173.439 36.2962L172.889 37.1967L172.689 37.3468L172.639 37.647L171.338 38.6976L170.988 38.8477L170.788 39.1979L170.337 39.348L168.436 40.2485L167.936 40.3986L166.435 41.1991L163.383 42.5499L162.533 43.2002L161.882 43.4004L157.93 45.6016L154.678 46.202L152.877 45.9519H152.577ZM173.189 25.4399L173.339 25.2898L173.239 25.1397L173.189 25.4399Z" fill="#1AB1E5" stroke="#1AB1E5" stroke-width="0.25" stroke-miterlimit="10"/>
<path d="M174.34 44.2008L174.24 43.3003L183.695 13.4328L186.497 6.57882L187.797 5.47818L188.398 5.67829H188.998L194.001 8.4299L194.251 9.33043L194.051 11.2315L188.348 28.3916L188.098 28.6417L187.998 29.4422L187.447 30.2927L187.347 30.843L185.996 34.9954L188.948 33.9448H190.699L192.7 34.0949L194.251 34.4451L194.201 34.6953L193.901 34.9954L193.651 36.4463L192.8 37.1967L192.6 37.647L192.4 37.8971L192.15 37.647L192.1 37.8971L191.5 38.5975L190.749 38.9477L189.599 39.6482H189.348L189.098 39.9483L188.498 40.2485L187.998 40.6988H187.697L187.547 40.8489L186.547 41.3992L186.247 41.6994L185.946 41.8494L183.345 44.1508L182.244 44.6011L174.99 44.9513L174.34 44.2008ZM191.55 36.7465L191.8 36.8965L191.9 36.4463L191.55 36.7465ZM192.55 36.9966L192.7 36.8965L192.55 36.7465V36.9966ZM192.95 36.7465L193.401 36.4463L193.501 35.6958L192.95 36.1461L193.051 36.2962L192.95 36.7465Z" fill="#1AB1E5" stroke="#1AB1E5" stroke-width="0.25" stroke-miterlimit="10"/>
<path d="M220.417 43.4004H219.966L219.566 43.7005L219.516 43.1502L219.016 43.4004L219.066 43.0502H217.765L217.565 43.4004L217.265 43.2503L217.065 42.9001H216.064L215.914 42.7H215.063L214.413 42.2497L212.962 41.4492L212.762 40.6988L212.362 40.2485L211.761 37.8471V35.6458L212.262 32.6441L212.412 32.2939L212.562 31.4934L213.613 28.6918L216.614 23.0385L217.115 22.5382L217.215 22.0379L219.616 18.9861L223.268 14.9838L228.621 10.331L232.574 7.87961L234.975 7.37931H237.126L238.077 8.12975L238.627 9.18037L238.827 10.7813L239.678 11.8819L240.378 12.4323L240.328 12.8325H240.528L240.328 13.8331H239.027L237.076 13.4329L235.575 14.4835L233.574 16.0844L233.224 16.2845L230.222 18.9861L229.672 19.7866L229.122 19.9867L229.072 20.2368L227.571 22.0379L226.92 22.5382L226.22 23.5888L225.82 23.939L224.619 25.3898L224.519 25.8901L223.068 27.1909L223.168 27.341L222.968 27.8413L222.318 28.4416L222.518 28.6918L221.767 29.3422L221.667 29.9925L221.967 29.8424L220.967 31.0932L221.117 31.4934L220.717 31.6935L220.617 32.1438L220.367 32.3939L220.567 32.6441L220.016 33.1944L220.066 33.6447L219.716 33.9448L219.616 34.6453L219.316 34.7453L219.416 34.8954L219.516 35.5958L219.116 35.946L219.066 36.1461L219.216 36.2962L219.016 36.4463L219.266 37.2968H221.117L225.069 36.1461L228.721 34.4451H229.072L229.422 34.145L231.623 32.9443H231.973L232.374 32.494H232.624L234.325 31.4934L234.775 30.9931H234.975L235.826 30.6929L236.226 30.1926H236.576L237.276 29.6924L240.628 27.8413L241.429 27.5411L241.579 27.341L241.979 27.1909L242.479 26.6906H242.98L242.429 27.1909L242.58 27.391L241.779 28.7418L241.229 30.793L241.829 30.4428L241.379 31.1432H241.879L241.529 31.6935L241.729 31.7936L241.329 31.9937L240.728 32.6441H241.229L241.629 32.2939L241.579 32.6441L241.329 32.7942L241.279 33.1444L240.578 33.6447L240.428 34.6453L239.728 35.7959L239.378 36.1461L239.678 36.2962L239.278 36.6464L239.027 36.4463L238.977 36.7465L238.427 37.2968L238.827 36.7465H238.377L238.477 36.2962L238.277 36.1461L237.727 36.4463L238.027 36.6464L237.527 36.7465L237.376 36.9466H237.627L237.577 37.2968L237.326 37.4469L237.126 37.2968L236.576 37.647L236.826 37.2968L236.276 37.5469L236.176 38.2474L236.776 37.7471H237.076L236.076 38.7977L236.126 38.5976L235.976 38.4475L235.826 38.5976L235.776 38.8477L235.125 39.0979L235.175 38.8977H234.975L234.575 39.2479L234.775 39.4981L233.724 39.6982L233.524 40.0484H233.124L232.824 40.5987L232.624 40.6988L232.273 41.2491H231.573L231.223 41.4492L231.273 41.2491H230.973L230.372 42.0996H230.122L229.922 41.7994L229.222 42.0996L229.072 42.2497L227.671 43.0502L226.97 43.2503L225.97 43.7005H225.62L225.319 44.1508L225.069 43.8506L224.069 44.1508L223.518 43.8006L223.068 44.0507L223.268 43.7005L222.918 44.0507H222.218L222.068 43.8506L220.367 44.0507L220.417 43.4004ZM220.367 31.4934L220.567 31.7936L220.667 31.1432L220.367 31.4934ZM229.272 41.7494H229.572L229.772 41.5993L229.622 41.4492L229.272 41.7494ZM229.772 40.2485H229.972L230.022 40.0484L229.772 40.2485ZM233.624 37.647H233.924L233.974 37.4469L233.624 37.647ZM233.924 38.4475L234.025 38.0973H233.674L233.924 38.4475ZM234.225 36.6464H234.525L234.625 36.2962H234.325L234.125 36.4463L234.225 36.6464ZM235.025 38.4475L235.075 38.2474L234.975 38.0973L234.725 38.2474L235.025 38.4475ZM235.075 36.2962H235.275L235.425 36.1461H235.625L235.826 35.7959L235.325 35.946L235.075 36.2962ZM235.826 37.7471L235.575 37.2968L235.826 37.0467L235.976 37.2968L236.926 36.6464L236.976 36.4463H236.776L236.876 35.996L236.226 36.9466L236.326 36.4463L235.625 36.9466H235.275L235.175 37.647H235.525L235.826 37.7471ZM235.425 38.2474H235.876L235.976 37.7471L235.425 38.2474ZM236.426 35.7959L236.476 35.4957L236.276 35.6458L236.426 35.7959ZM236.926 35.896L238.177 34.7453H237.877L237.126 35.6458L236.926 35.896ZM237.627 36.1461H237.927L238.027 35.4957L237.627 36.1461ZM238.827 34.0949L239.027 34.295L238.977 33.9448L238.827 34.0949ZM239.127 35.4957H239.478L240.128 34.6453L240.278 33.7948L240.028 33.9448L239.978 34.295L239.428 34.8954H239.228L238.977 35.2456L239.127 35.4957ZM240.628 33.4946L241.029 32.9443L240.778 32.7441L240.628 33.4946ZM240.728 30.6929L241.079 30.3427H240.778L240.728 30.6929Z" fill="#1AB1E5" stroke="#1AB1E5" stroke-width="0.25" stroke-miterlimit="10"/>
<path d="M237.727 46.252L238.327 40.3486L241.379 22.7883L244.781 9.68066L246.732 5.17803L247.532 4.12741H248.483L251.335 5.92847L253.086 7.5294L253.786 8.68007L253.886 9.5806L251.134 16.8849L250.434 19.5865L250.384 20.0367L249.934 21.4375L249.634 21.8878L249.934 21.7377L249.834 22.4881L251.535 22.3381H255.887L257.188 16.4346L259.689 9.48054L261.14 7.12917L262.391 5.82841L263.091 5.32811L264.692 5.92847L264.993 6.62888L265.893 7.42934L266.543 8.63005L267.344 9.53057L267.444 9.83075L268.194 10.7813L268.044 12.2322L267.644 12.5323L265.543 17.035L265.493 17.6353L265.293 17.9355V18.2357L265.093 18.5358L264.892 19.1362L264.342 21.7377L264.142 22.0379L264.042 23.0885L263.592 24.5894L263.492 25.4899L263.342 25.7901L263.192 27.441L262.791 28.0414L262.941 28.1915L262.741 28.3916L262.891 28.7918H262.591L262.541 29.2421L262.841 29.3922L262.641 29.5423V29.8424L262.391 30.2427L262.591 30.4428L262.391 30.5929L262.591 30.793L262.191 31.3433L262.491 31.4934L261.991 31.9437L261.791 32.2438L262.441 31.7936L262.341 32.8442L262.191 32.6941L262.141 33.2945L261.691 33.8948H261.941L262.091 33.5946L262.041 34.195H261.841L262.041 35.0955L261.44 35.996L261.24 36.4463H261.541L261.29 36.8966L261.491 37.0467L260.94 37.3468L260.59 38.3974L260.74 38.5475L259.79 39.1979L259.539 39.5981L259.439 39.1479L259.089 39.7482L259.139 39.1479L258.839 39.298L258.639 39.8983L258.339 39.7482L258.189 39.8983L258.339 40.0984L258.139 40.4987H257.838L257.988 40.1985L257.388 40.4987H257.088L256.738 40.6488L257.088 40.0984L256.137 40.7988L255.987 40.6488L255.687 40.9489L255.387 41.099L255.137 41.7494H254.136L253.886 42.1997H253.286L252.835 40.9489L253.086 38.0973L254.236 32.9943L254.637 28.7918H253.886L251.435 29.3922H248.733L248.383 29.6924L248.333 30.2927L248.133 30.743L248.083 31.4934L247.632 31.8936L247.983 32.2438L247.682 32.3939L247.783 32.544L247.682 33.8448L247.032 35.0455L247.382 35.3957L247.182 35.996L246.232 36.5964H246.932L247.082 37.0467L246.632 38.0973L246.382 37.9472L246.332 38.5475L245.931 39.1479V39.4481L245.731 39.5981V39.8983L245.381 40.4987L245.481 40.6488L244.531 41.6994L244.13 41.8995L243.78 42.4998L242.93 43.2503L242.83 43.1002V42.9001L242.079 43.8006L242.629 43.5505L242.429 43.8506L241.929 44.0007L241.579 44.6011H241.029L240.979 45.1014L240.278 46.102L239.778 46.252L240.028 46.4522L239.278 46.7023L237.977 46.5022L237.727 46.252ZM259.99 38.5475L260.29 38.3974V38.0973L259.99 38.5475ZM260.34 36.1461H260.64L260.54 35.996L260.34 36.1461ZM261.29 34.4952L261.44 34.0449L261.29 34.195V34.4952ZM261.591 32.6941H261.891L261.741 32.544L261.591 32.6941Z" fill="#1AB1E5" stroke="#1AB1E5" stroke-width="0.25" stroke-miterlimit="10"/>
<path d="M279.051 34.245L277.8 34.7953H277.5L276.599 35.0955H275.999L275.849 35.2456H275.599L273.648 35.946L272.797 37.647L272.247 38.4975L271.747 39.8483L269.445 43.8506L269.045 44.1008L268.695 44.7011L267.544 45.2514H265.943L265.343 45.1013H264.642L264.392 44.9513L262.341 45.1013L261.991 45.4015H261.741L261.14 44.9513L260.84 44.3009L261.491 42.2497L263.592 37.647L263.842 37.3968L277.55 8.83014L279.551 5.82838L280.302 5.47818L281.052 5.67829H282.753L283.303 6.3787L284.454 6.67888H285.154L285.705 6.97906L286.355 7.12914L287.206 7.72949L288.006 8.73008L287.956 9.23037L288.106 10.4311L289.257 16.7348L289.507 26.5905L289.407 27.341L289.557 27.5911V31.3433L289.357 32.7941L289.507 32.9442L289.357 33.9948L288.907 34.245L289.557 34.3951L289.407 34.9454L289.457 35.3456L289.157 37.3968L289.307 37.7971L289.207 39.7982L289.007 40.0984L289.107 40.3486L288.857 42.0996L288.707 42.3998L289.007 42.5498L288.757 43.1002L288.707 43.4003L288.556 43.5004L288.106 44.4009L287.806 44.551L287.406 45.1013L287.456 44.8012L287.106 44.6511L286.555 45.1013L286.755 44.6511L286.355 44.4009L286.305 44.7011L285.905 45.0513L285.655 44.4009L285.455 44.2508L285.054 44.551L284.604 44.7011L285.054 44.1008H284.854L284.604 44.451L283.904 44.9012L283.854 45.1013L283.704 45.2514L283.554 45.1013L283.353 45.4015L283.303 45.8018H282.753L283.053 45.4015L283.503 44.4009L283.153 44.8012L282.903 45.5016L282.153 45.8018L282.203 45.5516H281.752L281.702 45.8018L281.452 45.9518L280.552 45.7517L280.252 45.4015L280.001 44.1008L280.402 40.9489L280.902 33.6446H280.402L279.651 34.245H279.051ZM277.6 27.7912L278.501 27.5911L281.002 27.491L280.652 19.8866L280.602 20.2868L280.202 21.1373L280.152 21.3374L278.751 24.4893L278.551 24.6394L278.501 25.1897L277.4 27.5411L277.6 27.7912ZM288.006 42.85L288.406 42.3998L288.056 42.6499L288.006 42.85ZM288.106 43.5004L288.256 43.4003L288.306 43.1002L288.106 43.2503V43.5004Z" fill="#1AB1E5" stroke="#1AB1E5" stroke-width="0.25" stroke-miterlimit="10"/>
<path d="M303.915 26.0402H303.615L303.315 28.1915L302.965 28.7918L301.814 32.8942L301.714 33.5946L300.363 37.697L300.163 37.9472L300.113 38.5475L299.563 40.1484L299.313 40.4486L299.063 41.1991L298.662 41.4992L298.312 41.2491L297.562 41.4492H297.111L296.661 42.0996L296.711 41.5993H296.361L296.261 41.8494L295.961 41.5993L295.661 42.0496L294.46 42.3497L294.11 42.5999L293.509 42.4498L292.759 42.75L291.958 42.4498H291.158L291.058 41.7494L291.658 37.7971L297.312 16.0344L299.913 8.22979L301.114 6.22862L302.765 6.879L304.115 7.12914L307.267 8.88017L307.618 9.23037L309.519 9.78069L309.869 10.7813L309.919 12.1321L309.819 12.8325L310.069 15.1338L310.019 16.2845L310.119 16.4846L311.019 20.537L310.969 20.9372L311.72 23.6888V24.6394L312.02 25.0396L311.97 25.2898L312.17 25.8901V26.1903H312.47L319.875 9.03025L320.825 7.27923L321.826 6.42873H322.276L322.826 5.97847L323.177 6.42873L322.776 6.57882L323.277 6.879L323.577 6.42873L324.327 7.12914L323.977 7.72949L324.377 7.57941L324.577 7.87958L324.878 7.72949L324.778 8.22979L325.378 8.52996L325.428 8.02967L325.728 7.72949L325.628 8.47993L325.428 8.63002L325.778 8.98022L326.178 8.32985L326.128 8.73008H326.378L326.629 9.33043L326.879 8.88017L326.929 9.23037L327.079 9.33043L327.029 9.63061L327.229 10.231L327.579 9.53055L327.979 9.98081L327.629 10.4811H327.829L327.779 10.7813L327.229 11.2315L327.079 12.1321L326.679 12.6824L326.479 13.2827L326.178 13.5329L325.878 15.2839H325.478L325.378 15.7342L324.878 16.6347V16.8848L324.077 18.6359L323.477 19.2362H323.677L323.427 19.9366L323.277 20.6871L322.926 21.1373L321.476 24.7394L321.326 24.8895L321.275 25.2898L321.025 25.7901L320.675 27.491L320.225 28.3916L320.125 29.092L319.324 31.2933L319.224 32.2939L318.874 32.594L318.824 32.8942H319.024L318.574 34.4451L318.474 35.1956L318.124 36.046L317.123 41.1991L316.873 41.2991L316.623 41.7494H316.423L316.223 41.9495L315.922 41.6994L315.372 42.1996L314.972 42.0496L314.622 42.1996H314.371L314.121 42.5999L313.671 42.4498H313.371L313.121 42.75L309.218 43.3503L308.068 41.2491L303.915 26.0402ZM324.477 16.0344L324.778 15.8843L324.828 15.434L324.477 16.0344ZM325.478 7.71949L325.178 8.11972L325.278 7.71949H325.478Z" fill="#1AB1E5" stroke="#1AB1E5" stroke-width="0.25" stroke-miterlimit="10"/>
<path d="M332.332 43.0501L327.929 41.3492L326.378 40.9489L324.477 39.9483L323.377 38.5975L322.726 36.8465L322.476 34.1449L323.076 30.6929L324.527 27.2909L326.979 23.1385L330.581 18.3857L335.134 13.733L343.288 7.27923L345.49 6.17859L346.29 5.87841L346.49 5.72832H348.341L349.492 6.57882L350.543 8.83014L351.243 10.9314L350.593 12.6824L349.792 13.733L347.941 14.6836L345.64 16.1844L339.736 21.4375L337.285 23.939L335.284 26.3904L331.631 32.1438L330.531 35.1956L330.681 36.1961L331.281 36.5463H332.532L334.933 35.946L339.586 33.9448L343.088 31.7936L344.039 30.9931H343.538L343.438 30.843H343.138L341.937 30.3927L341.837 30.2427H341.537L340.387 29.6423L340.036 29.142L340.086 28.9919H339.786L337.835 27.7912L337.335 27.1408L337.035 26.9908L337.085 26.5405L339.186 24.7895L342.288 23.5888L344.539 22.9884L349.992 21.8878H352.043L353.744 22.5382L353.944 23.939V24.8395L353.594 26.5405L353.894 27.391L353.494 27.9413L353.594 28.3916L352.844 29.5923L353.044 29.7924H353.344L354.095 29.142L354.045 29.4422H354.245L353.694 30.3927L353.094 30.893L352.644 31.9437L353.144 31.6435L352.544 32.9943H352.294L352.544 33.3445L352.744 32.9943L353.344 32.544L353.244 32.9943L352.143 34.5452L350.292 36.6464L346.54 39.1979L344.189 40.3986L342.838 41.1991L335.734 43.2002L334.383 43.3503L333.783 43.0501H332.332Z" fill="#1AB1E5" stroke="#1AB1E5" stroke-width="0.25" stroke-miterlimit="10"/>
<path d="M369.754 34.245L368.503 34.7953H368.203L367.302 35.0955H366.702L366.552 35.2456H366.302L364.351 35.946L363.5 37.647L362.95 38.4975L362.45 39.8483L360.148 43.8506L359.748 44.1008L359.398 44.7011L358.247 45.2514H356.646L356.046 45.1013H355.345L355.095 44.9513L353.044 45.1013L352.694 45.4015H352.444L351.843 44.9513L351.543 44.3009L352.194 42.2497L354.295 37.647L354.545 37.3968L368.253 8.83014L370.254 5.82838L371.005 5.47818L371.755 5.67829H373.456L374.006 6.3787L375.157 6.67888H375.857L376.408 6.97906L377.058 7.12914L377.909 7.72949L378.709 8.73008L378.659 9.23037L378.809 10.4311L379.96 16.7348L380.21 26.5905L380.11 27.341L380.26 27.5911V31.3433L380.06 32.7941L380.21 32.9442L380.06 33.9948L379.61 34.245L380.26 34.3951L380.11 34.9454L380.16 35.3456L379.86 37.3968L380.01 37.7971L379.91 39.7982L379.71 40.0984L379.81 40.3486L379.56 42.0996L379.409 42.3998L379.71 42.5498L379.459 43.1002L379.409 43.4003L379.259 43.5004L378.809 44.4009L378.509 44.551L378.109 45.1013L378.159 44.8012L377.809 44.6511L377.258 45.1013L377.458 44.6511L377.058 44.4009L377.008 44.7011L376.608 45.0513L376.358 44.4009L376.158 44.2508L375.757 44.551L375.307 44.7011L375.757 44.1008H375.557L375.307 44.451L374.607 44.9012L374.557 45.1013L374.407 45.2514L374.256 45.1013L374.056 45.4015L374.006 45.8018H373.456L373.756 45.4015L374.206 44.4009L373.856 44.8012L373.606 45.5016L372.856 45.8018L372.906 45.5516H372.455L372.405 45.8018L372.155 45.9518L371.255 45.7517L370.954 45.4015L370.704 44.1008L371.105 40.9489L371.605 33.6446H371.105L370.354 34.245H369.754ZM368.303 27.7912L369.203 27.5911L371.705 27.491L371.355 19.8866L371.305 20.2868L370.904 21.1373L370.854 21.3374L369.454 24.4893L369.254 24.6394L369.203 25.1897L368.103 27.5411L368.303 27.7912ZM378.709 42.85L379.109 42.3998L378.759 42.6499L378.709 42.85ZM378.809 43.5004L378.959 43.4003L379.009 43.1002L378.809 43.2503V43.5004Z" fill="#1AB1E5" stroke="#1AB1E5" stroke-width="0.25" stroke-miterlimit="10"/>
<path d="M380.21 46.0019L388.465 19.1862L392.567 10.4311H391.967L391.267 10.6812L389.666 10.1809L389.165 9.68064L389.465 8.47993L390.366 7.52938L391.817 6.879L395.069 6.3787L395.419 6.07853L396.169 5.77835L396.47 5.97847L397.62 5.72832L398.221 6.07853H402.573L406.225 7.17917L410.178 9.08028L410.478 9.48052L412.579 10.8813L412.529 11.0815H412.779L412.929 11.5317L413.78 11.7819L414.08 12.4823L414.63 13.2827L414.68 13.9832L415.03 14.3334L414.48 16.3846L413.029 18.2857L412.579 18.7359L412.379 19.1862L410.928 20.2868L410.078 21.1874L405.375 24.7394L404.624 24.9896L404.174 25.2898L402.723 26.0402L402.073 26.2403L401.673 26.6906H401.172L400.422 27.2909H400.122L399.121 28.0914L398.571 28.2415L399.071 28.8919L399.421 29.092L400.672 31.6935L401.222 33.2444L401.122 33.9948L401.472 33.5446L401.573 34.195L402.073 34.7953L402.123 35.2956H402.423L402.623 35.996L403.224 36.3462L405.075 38.2473L405.425 38.6976L406.375 39.348L408.727 41.5993V42.0996L408.677 42.4498H408.377L408.276 42.8L407.476 43.0501H406.826L405.425 44.1508H402.473L400.622 43.5004L395.519 38.3974L393.118 34.9454L392.918 35.2956L390.566 42.2997L390.116 42.9001H389.666L389.465 43.6505L388.615 43.8506L387.915 44.3009H387.614L387.014 44.8012H386.364L384.763 45.4515H384.312L383.962 45.9518L382.862 46.202L380.76 47.2026L380.46 46.7523L380.21 46.0019ZM397.37 21.5376L406.275 14.8336L406.525 13.783L405.375 12.8325L403.324 11.6818L401.923 11.2315H401.272L400.722 12.1821L400.522 12.8325L398.821 16.8848L398.521 18.0855L398.02 19.0361L397.37 21.5376Z" fill="#1AB1E5" stroke="#1AB1E5" stroke-width="0.25" stroke-miterlimit="10"/>
<path d="M409.477 46.0019L417.732 19.1862L421.834 10.4311H421.234L420.534 10.6812L418.933 10.1809L418.432 9.68064L418.733 8.47993L419.633 7.52938L421.084 6.879L424.336 6.3787L424.686 6.07853L425.437 5.77835L425.737 5.97847L426.887 5.72832L427.488 6.07853H431.84L435.492 7.17917L439.445 9.08028L439.745 9.48052L441.846 10.8813L441.796 11.0815H442.046L442.196 11.5317L443.047 11.7819L443.347 12.4823L443.897 13.2827L443.947 13.9832L444.298 14.3334L443.747 16.3846L442.296 18.2857L441.846 18.7359L441.646 19.1862L440.195 20.2868L439.345 21.1874L434.642 24.7394L433.891 24.9896L433.441 25.2898L431.99 26.0402L431.34 26.2403L430.94 26.6906H430.439L429.689 27.2909H429.389L428.388 28.0914L427.838 28.2415L428.338 28.8919L428.688 29.092L429.939 31.6935L430.489 33.2444L430.389 33.9948L430.74 33.5446L430.84 34.195L431.34 34.7953L431.39 35.2956H431.69L431.89 35.996L432.491 36.3462L434.342 38.2473L434.692 38.6976L435.642 39.348L437.994 41.5993V42.0996L437.944 42.4498H437.644L437.544 42.8L436.743 43.0501H436.093L434.692 44.1508H431.74L429.889 43.5004L424.786 38.3974L422.385 34.9454L422.185 35.2956L419.833 42.2997L419.383 42.9001H418.933L418.733 43.6505L417.882 43.8506L417.182 44.3009H416.882L416.281 44.8012H415.631L414.03 45.4515H413.58L413.229 45.9518L412.129 46.202L410.028 47.2026L409.727 46.7523L409.477 46.0019ZM426.637 21.5376L435.542 14.8336L435.793 13.783L434.642 12.8325L432.591 11.6818L431.19 11.2315H430.54L429.989 12.1821L429.789 12.8325L428.088 16.8848L427.788 18.0855L427.288 19.0361L426.637 21.5376Z" fill="#1AB1E5" stroke="#1AB1E5" stroke-width="0.25" stroke-miterlimit="10"/>
<path d="M465.16 7.12918L465.21 6.87903L465.61 7.27927L465.91 7.12918L465.61 7.57944L466.16 7.47938L466.31 7.12918L466.71 7.57944L467.411 7.82959V8.02971H467.161L467.011 7.87962L466.811 8.12977L466.961 8.32988L466.41 8.58003L466.61 8.73012V9.03029L466.911 8.8802L467.511 9.03029L467.461 9.23041H467.711L467.911 8.8802H468.361L468.211 9.03029L468.011 9.48055L468.261 9.88079L468.912 10.231L469.312 9.78073H468.962L468.812 9.63064L468.712 9.78073H468.411L468.812 9.03029L468.762 9.33047H469.012L469.362 9.48055L469.712 9.88079L470.112 10.1309L469.762 11.0815H470.163L470.613 10.9314L470.313 11.5318L470.563 11.3817L470.813 11.6318L471.263 11.7819L471.013 12.5824L471.463 12.1321V12.5323L471.313 12.6824L471.413 12.8325H471.863L471.964 13.3828L472.214 13.683L473.064 15.434L473.264 16.1344L473.815 18.8861L473.464 19.0361L473.414 19.2363H473.865L473.715 21.1374L473.815 21.5376L473.715 22.5382L473.565 22.6883L473.414 24.1391L472.914 24.5894L473.164 24.8896L472.714 26.3404L472.414 26.6406L472.314 27.4911L471.964 28.3916V28.6418L471.713 28.7918L470.613 31.4434L470.112 31.8436L469.312 33.2945L469.062 33.0944L468.662 33.5947L468.812 33.7447L468.311 34.195L468.011 34.7954L467.311 35.4958L466.46 37.0967L465.91 37.4969L463.359 40.2986H463.058L462.858 40.5987L461.958 41.2992L461.157 41.7494L461.007 42.0496L460.557 42.3498L459.907 42.5999L459.456 43.0502L457.955 43.8006L454.403 44.9513L452.302 44.6011H451.151L449.15 44.0508L449 43.9507H448.6L446.048 43.4504L444.097 42.75L443.397 42.3498L441.796 40.5487L440.645 37.3969L440.345 34.0949L441.346 28.9419L443.397 23.5388L445.648 19.2363L447.699 16.1344L452.652 10.6312L457.355 6.72895L459.957 5.57827H460.657L461.758 6.1286H462.808L463.158 5.97851L463.659 6.27868L464.409 6.42877L464.059 6.57886H464.609L464.559 7.22924L465.06 6.97909L464.909 7.27927L465.11 7.57944L465.31 7.47938L465.16 7.12918ZM449.1 38.9478H450.851L454.153 37.697L456.505 36.0461L458.105 34.5952L460.607 31.5435L462.658 28.1915L463.959 25.4399L465.009 21.6877L465.26 19.2863L464.709 16.4846L463.859 14.3834L462.708 13.1327H462.208L460.307 14.4835L456.955 18.1856L456.805 18.4858L456.454 18.786L451.452 26.9408L450.501 29.092L449.45 32.2939L448.8 35.1456V38.1973L449.1 38.9478ZM466.36 8.46996L466.56 8.31988L466.36 8.11976L466.21 8.31988L466.36 8.46996ZM467.761 8.63006L467.661 9.03029L467.561 8.47997L467.761 8.63006ZM469.362 10.6312L469.612 10.7813L469.762 10.6312L469.662 10.231L469.362 10.6312ZM472.314 26.1903L472.414 26.3404L472.614 26.0402L472.314 26.1903Z" fill="#1AB1E5" stroke="#1AB1E5" stroke-width="0.25" stroke-miterlimit="10"/>
<path d="M0.638068 37.2968L13.8458 6.32871L16.6474 2.42643L17.4979 2.22631L18.0482 1.42585L18.8987 1.32579L19.1989 1.5259L19.4991 1.57593L19.8993 1.97617L21.4502 2.92672L23.0512 4.47763L24.3519 8.53L25.0023 14.1333L25.7528 27.7913L25.6527 28.2916L25.7027 30.4928L25.4526 30.693L25.3525 31.1932L25.9028 30.743L25.3025 31.6435L25.6027 31.6935V32.6441L25.5026 33.0443L25.6027 33.3945L25.4025 33.4946L25.5026 33.8448L25.3525 33.9949L25.3025 34.2951H25.6527L25.5026 35.1956L25.2525 35.4958L25.7027 35.5458L25.5526 36.4463L25.1524 37.4969L25.4526 37.697L25.1024 38.6976L24.7021 39.0979L24.3019 39.0478L23.8516 39.6482L23.7516 39.4981L23.1512 39.4481L22.4008 39.9484L20.8999 39.7482L20.5997 39.8983L20.3496 39.6982L20.1995 39.4481L19.9494 39.7983L19.6492 40.0484L19.4991 39.7482L19.1989 39.9984L18.2984 39.8983L17.548 40.2485L17.1477 40.1985L16.6474 39.5481L16.9476 34.6453L16.5974 33.9449L16.5474 34.3951H16.2972L15.947 34.4952L15.6969 34.4451L15.0965 34.6953L15.0465 34.5452L12.9953 35.0455L10.9941 34.7954L10.6939 35.2456L10.4438 35.9961L9.74339 37.2968L9.69336 37.7971L9.2431 38.7977L8.89289 39.9984L8.19248 40.7989L7.29196 41.2992L5.9912 41.4993L4.09009 41.2491L2.98944 40.7488L2.48915 40.8989L1.53859 40.7989L0.988273 40.8489L0.137776 40.3986L0.638068 37.2968ZM17.0477 26.4905L16.8976 19.9867L14.3461 26.6406L17.0477 26.4905ZM24.2018 29.9425L24.6521 29.9925L24.502 29.1921L24.2018 29.9425ZM24.2519 31.1932L24.3519 31.0432L24.6021 30.9431L24.7522 31.0932L24.9023 30.3928L24.3519 30.5429L24.2519 31.1932ZM24.552 35.0955L24.6021 34.7954L24.3519 34.7453L24.552 35.0955ZM24.6021 28.9419H24.8022L24.9523 28.7918L24.6021 28.9419ZM24.6521 33.3945L24.9523 33.4446L24.7522 33.1444L24.6521 33.3945Z" fill="#1B1464" stroke="#3E9673" stroke-width="0.25" stroke-miterlimit="10"/>
<path d="M27.854 39.7482L28.1041 37.9472L27.854 37.597L27.4037 37.3969L28.7045 35.896L29.8551 31.6935L33.2571 22.188L39.911 7.6795L39.2606 7.42936L38.16 7.6795L37.8598 7.07915L37.7598 6.62889L37.0093 6.1286L37.2094 5.6283L37.9099 4.92789L38.5602 4.12743L40.7615 2.97675L48.8663 1.92614L50.7674 1.82608L54.8197 1.92614L56.6708 2.12626L57.7715 2.17628L60.323 3.17687L60.8233 3.77722L60.9233 4.27751L62.124 6.32871L62.2241 6.97909L63.3747 7.87962L63.9251 8.68009L63.3247 10.3311L62.174 11.6318L59.4725 13.5329L57.2712 15.384L55.5202 16.3346L54.6697 16.7348L54.2194 17.1851L52.4183 18.2857L55.7203 19.0862L58.8221 20.9373L60.8233 24.3392L60.9733 25.3398H61.2735L61.8238 27.4411L61.6237 28.4917L60.8733 30.5929L59.8227 32.1438L57.6714 33.8448L57.2211 33.9949L55.7703 35.0955L53.3189 36.1962L52.1182 36.8466L50.2671 37.4969L49.8668 37.4469L48.1659 38.3474L46.9151 38.6976L47.0152 38.4975H46.8151L46.5649 38.7977L46.2647 38.5976L45.8145 38.7977L45.6144 38.9978L43.263 39.5982L42.1623 39.9984H41.512L41.0617 40.1485H40.7615L40.3613 40.2986L40.2112 40.0484L39.6609 40.5487L39.2106 40.3986H39.6609L39.861 39.9484L39.3107 40.0985H38.9605L38.4101 40.5487L38.5102 40.2485L37.8098 40.5487L37.6097 40.3486L36.459 40.8989L36.6591 40.4987L35.3584 40.999L35.5085 40.8489L35.7086 40.4487H36.2089L36.359 39.8983L35.5585 40.2986H35.0582L35.3083 39.9984L34.758 40.2986L34.0076 40.2485L33.9075 39.8483L33.4072 40.0985L33.5073 39.7482H33.1571L32.9069 39.8983H32.6068L31.8063 40.5487L31.2059 40.6988L31.0058 40.8489L30.0553 41.2992L30.1053 41.1491L28.9546 41.099L28.1041 41.3492L27.854 39.7482ZM34.3078 38.9478H34.658L34.5079 38.7977L34.3078 38.9478ZM37.8098 32.9443L41.4619 32.0437L50.2671 29.1921L53.3189 27.7913L55.0699 26.7406L55.7203 25.69L55.4201 24.4893H55.1199L54.0693 23.6889L47.6155 22.5882L45.6644 22.3881L44.8639 22.6883L44.0635 22.6382L43.313 22.8384L41.7621 22.9885L41.4619 24.0891L41.0617 24.5394L40.7115 25.69L40.3113 26.3404L39.4608 28.8919L39.1106 29.142L39.3107 29.1921L39.1106 29.8425L38.2601 30.843L38.8604 30.6429L38.6103 31.1432L38.2601 31.5435L38.4101 31.7436L38.11 32.6441L37.8598 32.7942L37.8098 32.9443ZM54.8197 8.47997L54.9198 7.97968L47.0152 8.47997L46.3148 8.73012L46.0146 11.3316L45.4142 13.7831L54.8197 8.47997Z" fill="#1B1464" stroke="#3E9673" stroke-width="0.25" stroke-miterlimit="10"/>
<path d="M60.223 41.9995L68.4778 15.1839L72.5802 6.42873H71.9798L71.2794 6.67888L69.6785 6.17859L69.1782 5.67829L69.4784 4.47759L70.3789 3.52704L71.8297 2.87666L75.0816 2.37636L75.4318 2.07619L76.1823 1.77601L76.4825 1.97613L77.6331 1.72598L78.2335 2.07619H82.586L86.2382 3.17683L90.1905 5.07794L90.4906 5.47818L92.5919 6.879L92.5418 7.07911H92.792L92.9421 7.52938L93.7926 7.77952L94.0928 8.47993L94.6431 9.2804L94.6931 9.98081L95.0433 10.331L94.493 12.3822L93.0421 14.2833L92.5919 14.7336L92.3918 15.1839L90.9409 16.2845L90.0904 17.185L85.3877 20.7371L84.6372 20.9872L84.187 21.2874L82.7361 22.0379L82.0857 22.238L81.6855 22.6882H81.1852L80.4348 23.2886H80.1346L79.134 24.0891L78.5837 24.2391L79.084 24.8895L79.4342 25.0896L80.6849 27.6912L81.2352 29.2421L81.1352 29.9925L81.4854 29.5422L81.5854 30.1926L82.0857 30.793L82.1358 31.2933H82.4359L82.6361 31.9937L83.2364 32.3439L85.0875 34.245L85.4377 34.6953L86.3882 35.3456L88.7396 37.597V38.0972L88.6896 38.4475H88.3894L88.2894 38.7977L87.4889 39.0478H86.8385L85.4377 40.1484H82.486L80.6349 39.4981L75.5319 34.3951L73.1305 30.9431L72.9304 31.2933L70.579 38.2974L70.1287 38.8977H69.6785L69.4784 39.6482L68.6279 39.8483L67.9275 40.2985H67.6273L67.0269 40.7988H66.3765L64.7756 41.4492H64.3254L63.9751 41.9495L62.8745 42.1996L60.7733 43.2002L60.4731 42.75L60.223 41.9995ZM77.383 17.5352L86.2882 10.8313L86.5383 9.78069L85.3877 8.83014L83.3365 7.67946L81.9356 7.2292H81.2853L80.7349 8.17976L80.5348 8.83014L78.8338 12.8825L78.5337 14.0832L78.0334 15.0338L77.383 17.5352Z" fill="#1B1464" stroke="#3E9673" stroke-width="0.25" stroke-miterlimit="10"/>
<path d="M96.7442 41.9495L96.0938 41.5993L93.8425 42.0496L92.7419 41.2991L91.8914 39.6482L95.8437 23.6388L95.9938 22.5382L97.9949 15.8843L100.546 9.58059L100.947 8.83015L100.496 7.52939L102.698 6.32869L104.349 4.17743L105.349 3.67714L105.749 3.87725H106.45L108.201 4.62769L110.452 4.1274L116.906 3.42699H120.308L123.31 3.87725H123.96L124.911 4.42758L124.861 4.62769L124.961 4.82781L125.061 5.87842L125.011 6.32869L125.211 6.57883L124.56 7.12916H124.26L123.36 7.87959L123.66 8.02968L122.809 8.17977L122.309 8.52997L122.209 8.98024L121.709 9.28041H121.409L121.309 9.73068L120.958 10.0309L120.258 10.331L119.908 10.6812H119.457L119.257 10.9814L117.556 11.5818H116.206L115.555 11.8819L113.304 12.1821L109.952 12.8325H109.652L108.751 13.1827L108.401 13.5829L108.051 14.6836L107.25 16.6847L107.05 16.9849L107 17.3351L113.954 16.2345H117.206L118.757 16.7348L118.807 17.4352L118.707 18.0856L118.857 19.0861L118.157 20.0867L117.857 21.7877L117.506 22.0879L117.756 22.3881L117.656 22.9884L117.056 23.6388L116.206 23.939L116.055 24.0891L114.455 24.5393L113.504 24.6894H112.403L111.653 25.0396L109.952 25.2898L104.199 27.391L102.898 34.4451L106 33.1944H106.4L106.55 32.9943L111.153 31.4934H112.403L113.554 30.9431L117.356 31.4934L118.357 31.7936L118.307 32.0938L117.606 32.2939L117.056 33.1944L116.856 33.3445L116.806 33.6447L115.505 34.6953L115.155 34.8454L114.955 35.1956L114.505 35.3457L112.603 36.2462L112.103 36.3963L110.602 37.1967L107.551 38.5475L106.7 39.1979L106.05 39.398L102.097 41.5993L98.8454 42.1997L97.0444 41.9495H96.7442ZM117.356 21.4375L117.506 21.2874L117.406 21.1373L117.356 21.4375Z" fill="#1B1464" stroke="#3E9673" stroke-width="0.25" stroke-miterlimit="10"/>
<path d="M147.574 41.9495L146.924 41.5993L144.672 42.0496L143.572 41.2991L142.721 39.6482L146.673 23.6388L146.824 22.5382L148.825 15.8843L151.376 9.58059L151.776 8.83015L151.326 7.52939L153.527 6.32869L155.178 4.17743L156.179 3.67714L156.579 3.87725H157.28L159.031 4.62769L161.282 4.1274L167.736 3.42699H171.138L174.139 3.87725H174.79L175.74 4.42758L175.69 4.62769L175.79 4.82781L175.891 5.87842L175.84 6.32869L176.041 6.57883L175.39 7.12916H175.09L174.19 7.87959L174.49 8.02968L173.639 8.17977L173.139 8.52997L173.039 8.98024L172.539 9.28041H172.238L172.138 9.73068L171.788 10.0309L171.088 10.331L170.738 10.6812H170.287L170.087 10.9814L168.386 11.5818H167.035L166.385 11.8819L164.134 12.1821L160.782 12.8325H160.482L159.581 13.1827L159.231 13.5829L158.881 14.6836L158.08 16.6847L157.88 16.9849L157.83 17.3351L164.784 16.2345H168.036L169.587 16.7348L169.637 17.4352L169.537 18.0856L169.687 19.0861L168.986 20.0867L168.686 21.7877L168.336 22.0879L168.586 22.3881L168.486 22.9884L167.886 23.6388L167.035 23.939L166.885 24.0891L165.284 24.5393L164.334 24.6894H163.233L162.483 25.0396L160.782 25.2898L155.028 27.391L153.728 34.4451L156.829 33.1944H157.23L157.38 32.9943L161.982 31.4934H163.233L164.384 30.9431L168.186 31.4934L169.187 31.7936L169.137 32.0938L168.436 32.2939L167.886 33.1944L167.686 33.3445L167.636 33.6447L166.335 34.6953L165.985 34.8454L165.785 35.1956L165.334 35.3457L163.433 36.2462L162.933 36.3963L161.432 37.1967L158.38 38.5475L157.53 39.1979L156.879 39.398L152.927 41.5993L149.675 42.1997L147.874 41.9495H147.574ZM168.186 21.4375L168.336 21.2874L168.236 21.1373L168.186 21.4375Z" fill="#1B1464" stroke="#3E9673" stroke-width="0.25" stroke-miterlimit="10"/>
<path d="M169.337 40.1985L169.237 39.2979L178.692 9.43049L181.494 2.57648L182.795 1.47584L183.395 1.67596H183.995L188.998 4.42756L189.248 5.32809L189.048 7.2292L183.345 24.3892L183.095 24.6394L182.995 25.4398L182.444 26.2903L182.344 26.8407L180.994 30.9931L183.945 29.9425H185.696L187.697 30.0926L189.248 30.4428L189.198 30.6929L188.898 30.9931L188.648 32.4439L187.797 33.1944L187.597 33.6446L187.397 33.8948L187.147 33.6446L187.097 33.8948L186.497 34.5952L185.746 34.9454L184.596 35.6458H184.345L184.095 35.946L183.495 36.2462L182.995 36.6964H182.694L182.544 36.8465L181.544 37.3968L181.244 37.697L180.943 37.8471L178.342 40.1484L177.241 40.5987L169.987 40.9489L169.337 40.1985ZM186.547 32.7441L186.797 32.8942L186.897 32.4439L186.547 32.7441ZM187.547 32.9943L187.697 32.8942L187.547 32.7441V32.9943ZM187.948 32.7441L188.398 32.4439L188.498 31.6935L187.948 32.1438L188.048 32.2939L187.948 32.7441Z" fill="#1B1464" stroke="#3E9673" stroke-width="0.25" stroke-miterlimit="10"/>
<path d="M215.414 39.398H214.963L214.563 39.6982L214.513 39.1479L214.013 39.398L214.063 39.0478H212.762L212.562 39.398L212.262 39.2479L212.062 38.8977H211.061L210.911 38.6976H210.06L209.41 38.2474L207.959 37.4469L207.759 36.6965L207.359 36.2462L206.759 33.8448V31.6435L207.259 28.6417L207.409 28.2915L207.559 27.4911L208.61 24.6894L211.611 19.0361L212.112 18.5358L212.212 18.0355L214.613 14.9838L218.265 10.9814L223.618 6.3287L227.571 3.87727L229.972 3.37697H232.123L233.074 4.12741L233.624 5.17803L233.824 6.77896L234.675 7.87961L235.375 8.42993L235.325 8.83016H235.525L235.325 9.83075H234.025L232.073 9.43051L230.572 10.4811L228.571 12.0821L228.221 12.2822L225.219 14.9838L224.669 15.7842L224.119 15.9843L224.069 16.2345L222.568 18.0355L221.917 18.5358L221.217 19.5865L220.817 19.9367L219.616 21.3875L219.516 21.8878L218.065 23.1886L218.165 23.3386L217.965 23.8389L217.315 24.4393L217.515 24.6894L216.764 25.3398L216.664 25.9902L216.965 25.8401L215.964 27.0908L216.114 27.4911L215.714 27.6912L215.614 28.1415L215.364 28.3916L215.564 28.6417L215.013 29.1921L215.063 29.6423L214.713 29.9425L214.613 30.6429L214.313 30.743L214.413 30.8931L214.513 31.5935L214.113 31.9437L214.063 32.1438L214.213 32.2939L214.013 32.444L214.263 33.2945H216.114L220.066 32.1438L223.718 30.4428H224.069L224.419 30.1426L226.62 28.9419H226.97L227.371 28.4917H227.621L229.322 27.4911L229.772 26.9908H229.972L230.823 26.6906L231.223 26.1903H231.573L232.273 25.69L235.625 23.8389L236.426 23.5388L236.576 23.3386L236.976 23.1886L237.477 22.6883H237.977L237.426 23.1886L237.577 23.3887L236.776 24.7395L236.226 26.7907L236.826 26.4405L236.376 27.1409H236.876L236.526 27.6912L236.726 27.7912L236.326 27.9914L235.725 28.6417H236.226L236.626 28.2915L236.576 28.6417L236.326 28.7918L236.276 29.142L235.575 29.6423L235.425 30.6429L234.725 31.7936L234.375 32.1438L234.675 32.2939L234.275 32.6441L234.025 32.444L233.974 32.7441L233.424 33.2945L233.824 32.7441H233.374L233.474 32.2939L233.274 32.1438L232.724 32.444L233.024 32.6441L232.524 32.7441L232.374 32.9443H232.624L232.574 33.2945L232.324 33.4446L232.123 33.2945L231.573 33.6447L231.823 33.2945L231.273 33.5446L231.173 34.245L231.773 33.7447H232.073L231.073 34.7953L231.123 34.5952L230.973 34.4451L230.823 34.5952L230.773 34.8454L230.122 35.0955L230.172 34.8954H229.972L229.572 35.2456L229.772 35.4957L228.721 35.6959L228.521 36.0461H228.121L227.821 36.5964L227.621 36.6965L227.271 37.2468H226.57L226.22 37.4469L226.27 37.2468H225.97L225.369 38.0973H225.119L224.919 37.7971L224.219 38.0973L224.069 38.2474L222.668 39.0478L221.967 39.2479L220.967 39.6982H220.617L220.316 40.1485L220.066 39.8483L219.066 40.1485L218.515 39.7983L218.065 40.0484L218.265 39.6982L217.915 40.0484H217.215L217.065 39.8483L215.364 40.0484L215.414 39.398ZM215.364 27.4911L215.564 27.7912L215.664 27.1409L215.364 27.4911ZM224.269 37.7471H224.569L224.769 37.597L224.619 37.4469L224.269 37.7471ZM224.769 36.2462H224.969L225.019 36.0461L224.769 36.2462ZM228.621 33.6447H228.922L228.972 33.4446L228.621 33.6447ZM228.922 34.4451L229.022 34.0949H228.671L228.922 34.4451ZM229.222 32.6441H229.522L229.622 32.2939H229.322L229.122 32.444L229.222 32.6441ZM230.022 34.4451L230.072 34.245L229.972 34.0949L229.722 34.245L230.022 34.4451ZM230.072 32.2939H230.272L230.422 32.1438H230.623L230.823 31.7936L230.322 31.9437L230.072 32.2939ZM230.823 33.7447L230.572 33.2945L230.823 33.0443L230.973 33.2945L231.923 32.6441L231.973 32.444H231.773L231.873 31.9937L231.223 32.9443L231.323 32.444L230.623 32.9443H230.272L230.172 33.6447H230.522L230.823 33.7447ZM230.422 34.245H230.873L230.973 33.7447L230.422 34.245ZM231.423 31.7936L231.473 31.4934L231.273 31.6435L231.423 31.7936ZM231.923 31.8936L233.174 30.743H232.874L232.123 31.6435L231.923 31.8936ZM232.624 32.1438H232.924L233.024 31.4934L232.624 32.1438ZM233.824 30.0926L234.025 30.2927L233.974 29.9425L233.824 30.0926ZM234.125 31.4934H234.475L235.125 30.6429L235.275 29.7924L235.025 29.9425L234.975 30.2927L234.425 30.8931H234.225L233.974 31.2433L234.125 31.4934ZM235.625 29.4922L236.026 28.9419L235.776 28.7418L235.625 29.4922ZM235.725 26.6906L236.076 26.3404H235.776L235.725 26.6906Z" fill="#1B1464" stroke="#3E9673" stroke-width="0.25" stroke-miterlimit="10"/>
<path d="M232.724 42.2497L233.324 36.3462L236.376 18.786L239.778 5.67832L241.729 1.17569L242.529 0.125073H243.48L246.332 1.92613L248.083 3.52706L248.783 4.67773L248.883 5.57826L246.132 12.8825L245.431 15.5841L245.381 16.0344L244.931 17.4352L244.631 17.8855L244.931 17.7354L244.831 18.4858L246.532 18.3357H250.884L252.185 12.4323L254.687 5.4782L256.137 3.12683L257.388 1.82607L258.089 1.32578L259.689 1.92613L259.99 2.62654L260.89 3.427L261.541 4.62771L262.341 5.52823L262.441 5.82841L263.192 6.77896L263.041 8.22981L262.641 8.52999L260.54 13.0326L260.49 13.633L260.29 13.9331V14.2333L260.09 14.5335L259.89 15.1338L259.339 17.7354L259.139 18.0355L259.039 19.0862L258.589 20.587L258.489 21.4876L258.339 21.7877L258.189 23.4387L257.788 24.0391L257.938 24.1891L257.738 24.3893L257.888 24.7895H257.588L257.538 25.2398L257.838 25.3898L257.638 25.5399V25.8401L257.388 26.2403L257.588 26.4405L257.388 26.5905L257.588 26.7907L257.188 27.341L257.488 27.4911L256.988 27.9413L256.788 28.2415L257.438 27.7912L257.338 28.8419L257.188 28.6918L257.138 29.2921L256.688 29.8925H256.938L257.088 29.5923L257.038 30.1927H256.838L257.038 31.0932L256.438 31.9937L256.237 32.444H256.538L256.287 32.8942L256.488 33.0443L255.937 33.3445L255.587 34.3951L255.737 34.5452L254.787 35.1956L254.536 35.5958L254.436 35.1455L254.086 35.7459L254.136 35.1455L253.836 35.2956L253.636 35.896L253.336 35.7459L253.186 35.896L253.336 36.0961L253.136 36.4963H252.835L252.986 36.1962L252.385 36.4963H252.085L251.735 36.6464L252.085 36.0961L251.134 36.7965L250.984 36.6464L250.684 36.9466L250.384 37.0967L250.134 37.7471H249.133L248.883 38.1973H248.283L247.833 36.9466L248.083 34.0949L249.233 28.9919L249.634 24.7895H248.883L246.432 25.3898H243.73L243.38 25.69L243.33 26.2904L243.13 26.7406L243.08 27.4911L242.629 27.8913L242.98 28.2415L242.68 28.3916L242.78 28.5417L242.68 29.8424L242.029 31.0431L242.379 31.3934L242.179 31.9937L241.229 32.5941H241.929L242.079 33.0443L241.629 34.0949L241.379 33.9448L241.329 34.5452L240.928 35.1455V35.4457L240.728 35.5958V35.896L240.378 36.4963L240.478 36.6464L239.528 37.697L239.127 37.8972L238.777 38.4975L237.927 39.2479L237.827 39.0979V38.8977L237.076 39.7983L237.627 39.5481L237.426 39.8483L236.926 39.9984L236.576 40.5987H236.026L235.976 41.099L235.275 42.0996L234.775 42.2497L235.025 42.4498L234.275 42.7L232.974 42.4998L232.724 42.2497ZM254.987 34.5452L255.287 34.3951V34.0949L254.987 34.5452ZM255.337 32.1438H255.637L255.537 31.9937L255.337 32.1438ZM256.287 30.4928L256.438 30.0426L256.287 30.1927V30.4928ZM256.588 28.6918H256.888L256.738 28.5417L256.588 28.6918Z" fill="#1B1464" stroke="#3E9673" stroke-width="0.25" stroke-miterlimit="10"/>
<path d="M274.048 30.2427L272.797 30.793H272.497L271.597 31.0932H270.996L270.846 31.2432H270.596L268.645 31.9437L267.794 33.6446L267.244 34.4951L266.744 35.8459L264.442 39.8483L264.042 40.0984L263.692 40.6988L262.541 41.2491H260.94L260.34 41.099H259.64L259.389 40.9489L257.338 41.099L256.988 41.3992H256.738L256.137 40.9489L255.837 40.2985L256.488 38.2473L258.589 33.6446L258.839 33.3945L272.547 4.8278L274.548 1.82604L275.299 1.47584L276.049 1.67596H277.75L278.3 2.37636L279.451 2.67654H280.152L280.702 2.97672L281.352 3.1268L282.203 3.72715L283.003 4.72774L282.953 5.22803L283.103 6.42873L284.254 12.7324L284.504 22.5882L284.404 23.3386L284.554 23.5888V27.341L284.354 28.7918L284.504 28.9419L284.354 29.9925L283.904 30.2427L284.554 30.3927L284.404 30.9431L284.454 31.3433L284.154 33.3945L284.304 33.7947L284.204 35.7959L284.004 36.0961L284.104 36.3462L283.854 38.0972L283.704 38.3974L284.004 38.5475L283.754 39.0978L283.704 39.398L283.554 39.4981L283.103 40.3986L282.803 40.5487L282.403 41.099L282.453 40.7988L282.103 40.6487L281.552 41.099L281.752 40.6487L281.352 40.3986L281.302 40.6988L280.902 41.049L280.652 40.3986L280.452 40.2485L280.051 40.5487L279.601 40.6988L280.051 40.0984H279.851L279.601 40.4486L278.901 40.8989L278.851 41.099L278.701 41.2491L278.551 41.099L278.35 41.3992L278.3 41.7994H277.75L278.05 41.3992L278.501 40.3986L278.15 40.7988L277.9 41.4992L277.15 41.7994L277.2 41.5493H276.75L276.7 41.7994L276.449 41.9495L275.549 41.7494L275.249 41.3992L274.999 40.0984L275.399 36.9466L275.899 29.6423H275.399L274.648 30.2427H274.048ZM272.597 23.7889L273.498 23.5888L275.999 23.4887L275.649 15.8843L275.599 16.2845L275.199 17.135L275.149 17.3351L273.748 20.487L273.548 20.637L273.498 21.1874L272.397 23.5387L272.597 23.7889ZM283.003 38.8477L283.403 38.3974L283.053 38.6476L283.003 38.8477ZM283.103 39.4981L283.253 39.398L283.303 39.0978L283.103 39.2479V39.4981Z" fill="#1B1464" stroke="#3E9673" stroke-width="0.25" stroke-miterlimit="10"/>
<path d="M298.912 22.0379H298.612L298.312 24.1891L297.962 24.7895L296.811 28.8919L296.711 29.5923L295.36 33.6947L295.16 33.9448L295.11 34.5452L294.56 36.1461L294.31 36.4463L294.06 37.1967L293.659 37.4969L293.309 37.2467L292.559 37.4469H292.108L291.658 38.0972L291.708 37.597H291.358L291.258 37.8471L290.958 37.597L290.658 38.0472L289.457 38.3474L289.107 38.5975L288.506 38.4475L287.756 38.7476L286.955 38.4475H286.155L286.055 37.747L286.655 33.7947L292.309 12.032L294.91 4.22745L296.111 2.22628L297.762 2.87666L299.113 3.1268L302.264 4.87783L302.615 5.22803L304.516 5.77835L304.866 6.77894L304.916 8.12973L304.816 8.83014L305.066 11.1315L305.016 12.2822L305.116 12.4823L306.017 16.5346L305.967 16.9349L306.717 19.6865V20.637L307.017 21.0373L306.967 21.2874L307.167 21.8878V22.1879H307.467L314.872 5.02792L315.822 3.27689L316.823 2.42639H317.273L317.823 1.97613L318.174 2.42639L317.773 2.57648L318.274 2.87666L318.574 2.42639L319.324 3.1268L318.974 3.72715L319.374 3.57707L319.575 3.87724L319.875 3.72715L319.775 4.22745L320.375 4.52762L320.425 4.02733L320.725 3.72715L320.625 4.47759L320.425 4.62768L320.775 4.97789L321.175 4.32751L321.125 4.72774H321.376L321.626 5.32809L321.876 4.87783L321.926 5.22803L322.076 5.32809L322.026 5.62827L322.226 6.22862L322.576 5.52821L322.977 5.97847L322.626 6.47876H322.826L322.776 6.77894L322.226 7.2292L322.076 8.12973L321.676 8.68005L321.476 9.2804L321.175 9.53055L320.875 11.2816H320.475L320.375 11.7318L319.875 12.6324V12.8825L319.074 14.6335L318.474 15.2339H318.674L318.424 15.9343L318.274 16.6847L317.924 17.135L316.473 20.7371L316.323 20.8872L316.273 21.2874L316.022 21.7877L315.672 23.4887L315.222 24.3892L315.122 25.0896L314.321 27.2909L314.221 28.2915L313.871 28.5917L313.821 28.8919H314.021L313.571 30.4428L313.471 31.1932L313.121 32.0437L312.12 37.1967L311.87 37.2968L311.62 37.747H311.42L311.22 37.9472L310.919 37.697L310.369 38.1973L309.969 38.0472L309.619 38.1973H309.369L309.118 38.5975L308.668 38.4475H308.368L308.118 38.7476L304.216 39.348L303.065 37.2467L298.912 22.0379ZM319.474 12.032L319.775 11.8819L319.825 11.4317L319.474 12.032ZM320.475 3.71715L320.175 4.11738L320.275 3.71715H320.475Z" fill="#1B1464" stroke="#3E9673" stroke-width="0.25" stroke-miterlimit="10"/>
<path d="M327.329 39.0478L322.926 37.3468L321.375 36.9466L319.474 35.946L318.374 34.5952L317.723 32.8442L317.473 30.1426L318.074 26.6906L319.524 23.2886L321.976 19.1362L325.578 14.3834L330.131 9.73066L338.285 3.27689L340.487 2.17625L341.287 1.87607L341.487 1.72598H343.338L344.489 2.57648L345.54 4.8278L346.24 6.92903L345.59 8.68005L344.789 9.73066L342.938 10.6812L340.637 12.1821L334.733 17.4352L332.282 19.9366L330.281 22.3881L326.629 28.1414L325.528 31.1932L325.678 32.1938L326.278 32.544H327.529L329.93 31.9437L334.583 29.9425L338.085 27.7912L339.036 26.9908H338.535L338.435 26.8407H338.135L336.935 26.3904L336.835 26.2403H336.534L335.384 25.64L335.033 25.1397L335.083 24.9896H334.783L332.832 23.7889L332.332 23.1385L332.032 22.9884L332.082 22.5382L334.183 20.7871L337.285 19.5864L339.536 18.9861L344.989 17.8854H347.04L348.741 18.5358L348.942 19.9366V20.8372L348.591 22.5382L348.892 23.3886L348.491 23.939L348.591 24.3892L347.841 25.5899L348.041 25.7901H348.341L349.092 25.1397L349.042 25.4398H349.242L348.691 26.3904L348.091 26.8907L347.641 27.9413L348.141 27.6411L347.541 28.9919H347.291L347.541 29.3421L347.741 28.9919L348.341 28.5417L348.241 28.9919L347.141 30.5428L345.289 32.6441L341.537 35.1956L339.186 36.3963L337.835 37.1967L330.731 39.1979L329.38 39.348L328.78 39.0478H327.329Z" fill="#1B1464" stroke="#3E9673" stroke-width="0.25" stroke-miterlimit="10"/>
<path d="M364.751 30.2427L363.5 30.793H363.2L362.299 31.0932H361.699L361.549 31.2432H361.299L359.348 31.9437L358.497 33.6446L357.947 34.4951L357.447 35.8459L355.145 39.8483L354.745 40.0984L354.395 40.6988L353.244 41.2491H351.643L351.043 41.099H350.342L350.092 40.9489L348.041 41.099L347.691 41.3992H347.441L346.84 40.9489L346.54 40.2985L347.191 38.2473L349.292 33.6446L349.542 33.3945L363.25 4.8278L365.251 1.82604L366.002 1.47584L366.752 1.67596H368.453L369.003 2.37636L370.154 2.67654H370.854L371.405 2.97672L372.055 3.1268L372.906 3.72715L373.706 4.72774L373.656 5.22803L373.806 6.42873L374.957 12.7324L375.207 22.5882L375.107 23.3386L375.257 23.5888V27.341L375.057 28.7918L375.207 28.9419L375.057 29.9925L374.607 30.2427L375.257 30.3927L375.107 30.9431L375.157 31.3433L374.857 33.3945L375.007 33.7947L374.907 35.7959L374.707 36.0961L374.807 36.3462L374.557 38.0972L374.407 38.3974L374.707 38.5475L374.457 39.0978L374.407 39.398L374.256 39.4981L373.806 40.3986L373.506 40.5487L373.106 41.099L373.156 40.7988L372.806 40.6487L372.255 41.099L372.455 40.6487L372.055 40.3986L372.005 40.6988L371.605 41.049L371.355 40.3986L371.155 40.2485L370.754 40.5487L370.304 40.6988L370.754 40.0984H370.554L370.304 40.4486L369.604 40.8989L369.554 41.099L369.404 41.2491L369.254 41.099L369.053 41.3992L369.003 41.7994H368.453L368.753 41.3992L369.203 40.3986L368.853 40.7988L368.603 41.4992L367.853 41.7994L367.903 41.5493H367.452L367.402 41.7994L367.152 41.9495L366.252 41.7494L365.952 41.3992L365.701 40.0984L366.102 36.9466L366.602 29.6423H366.102L365.351 30.2427H364.751ZM363.3 23.7889L364.201 23.5888L366.702 23.4887L366.352 15.8843L366.302 16.2845L365.902 17.135L365.852 17.3351L364.451 20.487L364.251 20.637L364.201 21.1874L363.1 23.5387L363.3 23.7889ZM373.706 38.8477L374.106 38.3974L373.756 38.6476L373.706 38.8477ZM373.806 39.4981L373.956 39.398L374.006 39.0978L373.806 39.2479V39.4981Z" fill="#1B1464" stroke="#3E9673" stroke-width="0.25" stroke-miterlimit="10"/>
<path d="M375.207 41.9995L383.462 15.1839L387.564 6.42873H386.964L386.264 6.67888L384.663 6.17859L384.162 5.67829L384.463 4.47759L385.363 3.52704L386.814 2.87666L390.066 2.37636L390.416 2.07619L391.166 1.77601L391.467 1.97613L392.617 1.72598L393.218 2.07619H397.57L401.222 3.17683L405.175 5.07794L405.475 5.47818L407.576 6.879L407.526 7.07911H407.776L407.926 7.52938L408.777 7.77952L409.077 8.47993L409.627 9.2804L409.677 9.98081L410.028 10.331L409.477 12.3822L408.026 14.2833L407.576 14.7336L407.376 15.1839L405.925 16.2845L405.075 17.185L400.372 20.7371L399.621 20.9872L399.171 21.2874L397.72 22.0379L397.07 22.238L396.67 22.6882H396.169L395.419 23.2886H395.119L394.118 24.0891L393.568 24.2391L394.068 24.8895L394.418 25.0896L395.669 27.6912L396.219 29.2421L396.119 29.9925L396.47 29.5422L396.57 30.1926L397.07 30.793L397.12 31.2933H397.42L397.62 31.9937L398.221 32.3439L400.072 34.245L400.422 34.6953L401.372 35.3456L403.724 37.597V38.0972L403.674 38.4475H403.374L403.274 38.7977L402.473 39.0478H401.823L400.422 40.1484H397.47L395.619 39.4981L390.516 34.3951L388.115 30.9431L387.915 31.2933L385.563 38.2974L385.113 38.8977H384.663L384.463 39.6482L383.612 39.8483L382.912 40.2985H382.611L382.011 40.7988H381.361L379.76 41.4492H379.31L378.959 41.9495L377.859 42.1996L375.757 43.2002L375.457 42.75L375.207 41.9995ZM392.367 17.5352L401.272 10.8313L401.523 9.78069L400.372 8.83014L398.321 7.67946L396.92 7.2292H396.269L395.719 8.17976L395.519 8.83014L393.818 12.8825L393.518 14.0832L393.018 15.0338L392.367 17.5352Z" fill="#1B1464" stroke="#3E9673" stroke-width="0.25" stroke-miterlimit="10"/>
<path d="M404.474 41.9995L412.729 15.1839L416.831 6.42873H416.231L415.531 6.67888L413.93 6.17859L413.429 5.67829L413.73 4.47759L414.63 3.52704L416.081 2.87666L419.333 2.37636L419.683 2.07619L420.434 1.77601L420.734 1.97613L421.884 1.72598L422.485 2.07619H426.837L430.489 3.17683L434.442 5.07794L434.742 5.47818L436.843 6.879L436.793 7.07911H437.043L437.193 7.52938L438.044 7.77952L438.344 8.47993L438.894 9.2804L438.944 9.98081L439.295 10.331L438.744 12.3822L437.293 14.2833L436.843 14.7336L436.643 15.1839L435.192 16.2845L434.342 17.185L429.639 20.7371L428.889 20.9872L428.438 21.2874L426.987 22.0379L426.337 22.238L425.937 22.6882H425.437L424.686 23.2886H424.386L423.385 24.0891L422.835 24.2391L423.335 24.8895L423.685 25.0896L424.936 27.6912L425.487 29.2421L425.386 29.9925L425.737 29.5422L425.837 30.1926L426.337 30.793L426.387 31.2933H426.687L426.887 31.9937L427.488 32.3439L429.339 34.245L429.689 34.6953L430.64 35.3456L432.991 37.597V38.0972L432.941 38.4475H432.641L432.541 38.7977L431.74 39.0478H431.09L429.689 40.1484H426.737L424.886 39.4981L419.783 34.3951L417.382 30.9431L417.182 31.2933L414.83 38.2974L414.38 38.8977H413.93L413.73 39.6482L412.879 39.8483L412.179 40.2985H411.879L411.278 40.7988H410.628L409.027 41.4492H408.577L408.226 41.9495L407.126 42.1996L405.025 43.2002L404.724 42.75L404.474 41.9995ZM421.634 17.5352L430.54 10.8313L430.79 9.78069L429.639 8.83014L427.588 7.67946L426.187 7.2292H425.537L424.986 8.17976L424.786 8.83014L423.085 12.8825L422.785 14.0832L422.285 15.0338L421.634 17.5352Z" fill="#1B1464" stroke="#3E9673" stroke-width="0.25" stroke-miterlimit="10"/>
<path d="M460.157 3.12684L460.207 2.87669L460.607 3.27693L460.907 3.12684L460.607 3.5771L461.157 3.47704L461.307 3.12684L461.708 3.5771L462.408 3.82725V4.02737H462.158L462.008 3.87728L461.808 4.12743L461.958 4.32754L461.407 4.57769L461.608 4.72778V5.02795L461.908 4.87786L462.508 5.02795L462.458 5.22807H462.708L462.908 4.87786H463.359L463.208 5.02795L463.008 5.47821L463.258 5.87845L463.909 6.22865L464.309 5.77839H463.959L463.809 5.6283L463.709 5.77839H463.409L463.809 5.02795L463.759 5.32813H464.009L464.359 5.47821L464.709 5.87845L465.11 6.1286L464.759 7.07915H465.16L465.61 6.92906L465.31 7.52941L465.56 7.37933L465.81 7.62947L466.26 7.77956L466.01 8.58003L466.46 8.12977V8.53L466.31 8.68009L466.41 8.83017H466.861L466.961 9.3805L467.211 9.68067L468.061 11.4317L468.261 12.1321L468.812 14.8837L468.462 15.0338L468.411 15.2339H468.862L468.712 17.135L468.812 17.5353L468.712 18.5358L468.562 18.6859L468.411 20.1368L467.911 20.587L468.161 20.8872L467.711 22.3381L467.411 22.6382L467.311 23.4887L466.961 24.3893V24.6394L466.71 24.7895L465.61 27.4411L465.11 27.8413L464.309 29.2921L464.059 29.092L463.659 29.5923L463.809 29.7424L463.309 30.1927L463.008 30.793L462.308 31.4934L461.457 33.0944L460.907 33.4946L458.356 36.2962H458.055L457.855 36.5964L456.955 37.2968L456.154 37.7471L456.004 38.0473L455.554 38.3474L454.904 38.5976L454.453 39.0478L452.952 39.7983L449.4 40.9489L447.299 40.5987H446.148L444.147 40.0484L443.997 39.9484H443.597L441.045 39.4481L439.094 38.7477L438.394 38.3474L436.793 36.5464L435.642 33.3945L435.342 30.0926L436.343 24.9396L438.394 19.5364L440.645 15.2339L442.696 12.1321L447.649 6.62889L452.352 2.72661L454.954 1.57593H455.654L456.755 2.12626H457.805L458.156 1.97617L458.656 2.27634L459.406 2.42643L459.056 2.57652H459.606L459.556 3.2269L460.057 2.97675L459.907 3.27693L460.107 3.5771L460.307 3.47704L460.157 3.12684ZM444.097 34.9454H445.848L449.15 33.6947L451.502 32.0437L453.103 30.5929L455.604 27.5411L457.655 24.1892L458.956 21.4375L460.007 17.6854L460.257 15.2839L459.706 12.4823L458.856 10.3811L457.705 9.13035H457.205L455.304 10.4811L451.952 14.1833L451.802 14.4835L451.452 14.7837L446.449 22.9384L445.498 25.0897L444.447 28.2916L443.797 31.1432V34.195L444.097 34.9454ZM461.357 4.46762L461.557 4.31754L461.357 4.11742L461.207 4.31754L461.357 4.46762ZM462.758 4.62772L462.658 5.02795L462.558 4.47763L462.758 4.62772ZM464.359 6.62889L464.609 6.77898L464.759 6.62889L464.659 6.22865L464.359 6.62889ZM467.311 22.188L467.411 22.3381L467.611 22.0379L467.311 22.188Z" fill="#1B1464" stroke="#3E9673" stroke-width="0.25" stroke-miterlimit="10"/>
</svg>
