<svg width="287" height="114" viewBox="0 0 287 114" fill="none" xmlns="http://www.w3.org/2000/svg">
<g clip-path="url(#clip0_73_188)">
<path d="M144.362 114C142.638 114 140.97 113.658 139.416 112.974C137.806 112.276 136.423 111.307 135.297 110.096C134.399 109.213 133.629 108.101 133.073 106.833C132.546 105.636 132.175 104.354 131.962 103.029C131.762 101.732 131.691 100.407 131.762 99.0679C131.819 97.7855 131.976 96.5032 132.218 95.2779L132.646 93.0266L144.405 96.147C143.55 95.6341 142.638 95.0356 141.683 94.3802C138.875 92.4852 136.979 90.2197 136.052 87.6978C135.154 85.2186 135.012 82.3547 135.639 79.1774C136.024 77.2539 136.737 75.4443 137.791 73.7773C138.832 72.1245 140.129 70.6712 141.668 69.4458C143.194 68.2347 144.918 67.2659 146.8 66.5534C148.696 65.841 150.691 65.4563 152.715 65.4136C154.625 65.3993 156.435 65.7271 158.032 66.4395C159.557 67.1234 160.897 68.021 161.994 69.1181C163.078 70.1867 163.976 71.3978 164.646 72.7229C165.315 74.048 165.772 75.3731 165.985 76.6839L166.171 77.8665L156.478 86.2872C156.706 86.4582 156.948 86.6434 157.177 86.8144C158.26 87.6551 159.229 88.6239 160.042 89.6783C160.925 90.8182 161.567 92.1005 161.952 93.4826C162.351 94.9217 162.393 96.5175 162.094 98.213C161.638 100.478 160.897 102.573 159.885 104.468C158.859 106.391 157.561 108.059 156.036 109.455C154.497 110.865 152.744 111.977 150.791 112.76C148.824 113.558 146.743 113.972 144.59 114.014C144.505 114 144.434 114 144.362 114ZM136.109 98.3697C136.081 98.6689 136.067 98.9824 136.052 99.2959C135.995 100.336 136.052 101.376 136.209 102.388C136.352 103.342 136.623 104.268 136.993 105.109C137.335 105.879 137.806 106.562 138.376 107.132C139.174 107.987 140.058 108.6 141.141 109.07C142.21 109.54 143.322 109.768 144.519 109.726C146.144 109.697 147.726 109.384 149.194 108.785C150.663 108.187 152.002 107.346 153.157 106.292C154.326 105.223 155.324 103.912 156.136 102.416C156.963 100.892 157.561 99.2104 157.918 97.3866C158.103 96.3607 158.089 95.4203 157.861 94.6082C157.618 93.7533 157.219 92.9554 156.678 92.2572C156.079 91.4878 155.381 90.7754 154.582 90.1627C154.126 89.8065 153.656 89.4646 153.2 89.1369L150.463 91.5163L151.261 87.826C150.534 87.3558 149.836 86.9142 149.152 86.5152C148.14 85.9025 147.313 85.3041 146.643 84.6914C145.745 83.8793 145.203 82.8534 145.075 81.7278C144.961 80.6877 145.132 79.7046 145.617 78.8069C146.044 77.9948 146.686 77.2824 147.541 76.7124C148.439 76.0998 149.494 75.7863 150.663 75.7578C152.059 75.7293 153.257 76.0855 154.183 76.8264C155.038 77.5103 155.666 78.4365 156.022 79.5621C156.15 79.9468 156.236 80.36 156.307 80.7874L161.538 76.2422C161.381 75.7293 161.153 75.1879 160.883 74.6607C160.412 73.7488 159.785 72.8939 159.03 72.153C158.288 71.4121 157.376 70.7994 156.307 70.3292C155.295 69.8733 154.141 69.6453 152.829 69.6738C151.304 69.7023 149.793 69.9873 148.353 70.5287C146.885 71.0844 145.56 71.8395 144.377 72.7657C143.222 73.6776 142.239 74.7747 141.469 76.0143C140.699 77.2396 140.172 78.5647 139.887 79.9753C139.416 82.369 139.502 84.4777 140.129 86.2017C140.742 87.8688 142.096 89.4361 144.149 90.8324C145.203 91.5591 146.173 92.186 147.071 92.7132C148.083 93.3116 148.966 93.8815 149.679 94.4087C150.52 95.0356 151.147 95.6483 151.632 96.2752C152.345 97.2299 152.601 98.3412 152.373 99.5096C152.088 100.763 151.361 101.775 150.263 102.502C149.266 103.171 148.054 103.528 146.643 103.542C144.149 103.57 143.094 102.274 142.695 101.504C142.452 101.034 142.267 100.507 142.139 99.937L136.109 98.3697ZM146.358 99.2959C146.415 99.2959 146.472 99.2959 146.543 99.2959C147.113 99.2816 147.555 99.1819 147.855 98.9824C147.983 98.8969 148.054 98.8257 148.097 98.7687C147.926 98.5549 147.627 98.2557 147.085 97.8568C146.786 97.6431 146.458 97.4151 146.101 97.1729L146.158 98.1275C146.187 98.6689 146.272 99.0394 146.358 99.2959ZM150.762 80.0608C150.748 80.0608 150.72 80.0608 150.705 80.0608C150.263 80.0608 150.035 80.189 149.907 80.2745C149.651 80.4455 149.465 80.6307 149.365 80.8302C149.308 80.9299 149.266 81.0439 149.294 81.2719C149.308 81.3716 149.408 81.4856 149.494 81.5711C149.95 81.9985 150.563 82.4402 151.333 82.8962C151.575 83.0386 151.831 83.1954 152.074 83.3521C152.088 83.1384 152.102 82.9247 152.102 82.7252C152.116 82.0128 152.045 81.4001 151.888 80.9157C151.76 80.5025 151.575 80.3172 151.461 80.2317C151.418 80.132 151.176 80.0608 150.762 80.0608Z" fill="#4EB32E"/>
<path d="M157.946 109.327L162.279 70.7424C162.322 70.1867 162.336 69.5313 162.308 68.8189C162.279 68.0922 162.194 67.3941 162.08 66.7387C161.966 66.0832 161.823 65.4991 161.667 65.0146C161.524 64.5729 161.424 64.4304 161.424 64.4162L158.759 61.2816L162.864 60.9254L177.232 59.586L175.464 75.1878L178.001 74.9456L179.769 59.3438L193.609 58.0472L188.15 106.491L174.31 107.788L176.319 89.664L173.782 89.9063L171.772 108.03L157.946 109.327ZM166.199 74.333L162.778 104.596L167.924 104.112L169.934 85.988L181.166 84.9336L179.156 103.057L184.302 102.573L188.777 62.8204L183.632 63.3048L181.864 78.9066L170.632 79.961L171.915 68.6194L166.199 74.333ZM166.085 64.9291C166.171 65.2711 166.242 65.6415 166.299 66.012C166.442 66.8241 166.541 67.6933 166.57 68.5767L171.972 68.078L172.4 64.3307L166.085 64.9291Z" fill="#4EB32E"/>
<path d="M199.41 101.276C197.914 101.276 196.574 101.077 195.391 100.692C193.581 100.094 192.07 99.1249 190.929 97.8283C189.832 96.5887 189.005 95.1069 188.478 93.3971C187.993 91.8583 187.651 90.177 187.466 88.4102C187.28 86.6862 187.238 84.8766 187.323 83.0529C187.409 81.3146 187.523 79.619 187.651 78.0375C187.779 76.4132 187.979 74.6892 188.221 72.9224C188.464 71.1129 188.834 69.2891 189.29 67.5081C189.761 65.6985 190.388 63.9318 191.158 62.2505C191.956 60.4837 192.996 58.8879 194.251 57.4773C195.533 56.0525 197.073 54.8271 198.84 53.8725C200.636 52.8894 202.789 52.2482 205.212 51.9633C207.82 51.664 209.973 51.835 211.797 52.5047C213.621 53.1743 215.132 54.2002 216.287 55.568C217.384 56.8789 218.197 58.4604 218.696 60.2842C219.152 61.937 219.437 63.718 219.565 65.556C219.694 67.3656 219.694 69.2321 219.58 71.1271C219.466 72.9509 219.352 74.6749 219.209 76.2992C218.995 78.7641 218.625 81.3288 218.083 83.9647C217.527 86.7004 216.615 89.2651 215.403 91.6018C214.149 94.024 212.41 96.1327 210.243 97.871C207.991 99.6663 205.112 100.778 201.691 101.177C200.893 101.234 200.137 101.276 199.41 101.276ZM207.535 56.0952C206.965 56.0952 206.352 56.138 205.711 56.2092C203.829 56.4229 202.204 56.9074 200.893 57.6198C199.553 58.3464 198.398 59.2583 197.443 60.327C196.474 61.4098 195.676 62.6494 195.049 64.0315C194.393 65.4848 193.837 67.0236 193.438 68.5909C193.025 70.201 192.697 71.8538 192.469 73.5066C192.241 75.2021 192.056 76.8549 191.927 78.4079C191.785 79.9467 191.685 81.571 191.599 83.2666C191.528 84.8766 191.571 86.4582 191.728 87.9827C191.884 89.4646 192.155 90.8609 192.569 92.129C192.925 93.2546 193.452 94.2235 194.151 95.0071C194.807 95.748 195.647 96.2752 196.759 96.6457C197.914 97.0304 199.41 97.1159 201.221 96.9021C203.843 96.6029 205.981 95.7908 207.606 94.5084C209.303 93.1549 210.671 91.5021 211.64 89.607C212.666 87.6265 213.436 85.4323 213.921 83.0814C214.42 80.6164 214.776 78.2227 214.976 75.9288C215.104 74.333 215.232 72.6517 215.332 70.8564C215.432 69.1466 215.432 67.4653 215.318 65.8553C215.204 64.288 214.961 62.7919 214.591 61.4098C214.263 60.1987 213.736 59.1586 213.037 58.318C212.367 57.5201 211.498 56.9359 210.357 56.5227C209.559 56.2377 208.633 56.0952 207.535 56.0952ZM201.819 90.5759C200.209 90.5759 198.883 89.7353 198.128 88.2107C197.572 87.0994 197.215 85.76 197.059 84.2355C196.916 82.8534 196.902 81.4286 196.987 80.0037C197.073 78.6644 197.158 77.61 197.23 76.8121C197.301 76 197.429 74.9029 197.614 73.5208C197.814 72.0817 198.113 70.6284 198.541 69.2036C198.983 67.6933 199.582 66.3255 200.337 65.1429C201.591 63.1766 203.202 62.6067 204.342 62.4784C206.281 62.2647 207.877 63.1339 208.732 64.8864C209.288 66.0262 209.659 67.3941 209.83 68.9471C210.001 70.3862 210.044 71.8965 209.958 73.4211C209.887 74.8459 209.816 76 209.759 76.8691C209.673 77.7098 209.545 78.7499 209.345 80.0607C209.132 81.4428 208.789 82.8534 208.305 84.2212C207.806 85.6603 207.165 86.9426 206.381 88.054C205.098 89.892 203.501 90.4192 202.39 90.5474C202.19 90.5617 202.005 90.5759 201.819 90.5759ZM201.819 86.3015L202.133 88.4244L201.891 86.3157C201.862 86.3015 201.834 86.3015 201.819 86.3015ZM204.855 66.7102C204.613 66.7387 204.314 66.8384 203.943 67.4226C203.416 68.2632 202.974 69.2606 202.646 70.3862C202.29 71.6115 202.019 72.8654 201.862 74.0907C201.677 75.4016 201.563 76.4274 201.492 77.1826C201.42 77.952 201.349 78.9921 201.263 80.2887C201.178 81.4856 201.206 82.6682 201.32 83.808C201.42 84.8054 201.634 85.646 201.962 86.2872C202.147 86.2587 202.475 86.159 202.874 85.589C203.43 84.8054 203.886 83.865 204.257 82.8106C204.642 81.685 204.927 80.5452 205.112 79.4053C205.297 78.1942 205.426 77.2253 205.497 76.4987C205.554 75.715 205.611 74.5752 205.696 73.1788C205.768 71.8965 205.725 70.6284 205.597 69.4173C205.44 68.3345 205.212 67.4368 204.855 66.7102Z" fill="#4EB32E"/>
<path d="M227.818 99.8373L227.647 96.2182L218.283 97.5433L215.973 62.0368L215.133 62.1507L215.232 59.5861C215.261 59.0304 215.232 58.3892 215.175 57.6626C215.104 56.9502 215.004 56.252 214.862 55.5966C214.719 54.9554 214.548 54.3855 214.363 53.8868C214.192 53.4451 214.092 53.3026 214.092 53.3026L211.312 50.3105L215.389 49.7548L229.629 47.7458L229.714 49.4556L244.196 47.4181L244.766 57.6341L246.904 45.3236L262.027 43.1864L254.915 80.6022L254.829 82.5827C254.801 83.1526 254.829 83.7938 254.886 84.492C254.958 85.2044 255.057 85.9025 255.2 86.5722C255.342 87.2276 255.513 87.7975 255.699 88.2677C255.87 88.7094 255.97 88.8519 255.97 88.8519L258.792 91.8583L254.687 92.3997L242.756 94.081L242.543 95.2921L242.471 94.1238L235.972 95.0356L235.572 90.3337L234.575 95.2351L228.403 96.1043L227.818 99.8373ZM220.307 62.7207L222.245 92.6562L227.434 91.9295L225.752 56.7364L220.307 62.7207ZM235.045 53.0176L229.073 91.7016L230.983 91.4308L237.311 60.441L239.849 90.177L242.229 89.835L240.162 52.291L235.045 53.0176ZM250.553 49.1136L243.512 89.6641L251.28 88.5669C251.18 88.225 251.095 87.8688 251.009 87.4983C250.824 86.6719 250.696 85.817 250.61 84.9479H250.596L244.723 85.7743L250.81 79.0919L256.668 48.2587L250.553 49.1136ZM229.828 52.2055L230.07 57.2351L230.683 53.2314C230.612 53.0034 230.541 52.8752 230.512 52.8182L229.828 52.2055ZM218.753 53.5876C218.853 53.9295 218.938 54.2857 219.024 54.6562C219.209 55.4683 219.337 56.3232 219.423 57.2066L225.737 56.309L225.566 52.6187L218.753 53.5876Z" fill="#4EB32E"/>
<path d="M267.601 86.3442C266.318 86.3442 265.049 86.1447 263.838 85.76C262.17 85.2186 260.702 84.3922 259.462 83.3093C258.478 82.5257 257.609 81.4856 256.925 80.2745C256.283 79.1489 255.784 77.9093 255.442 76.5984C255.114 75.3303 254.915 74.0195 254.858 72.6802C254.801 71.3978 254.815 70.1012 254.929 68.8474L255.143 66.5677L267.159 68.5054C266.261 68.078 265.292 67.5793 264.28 67.0094C261.3 65.3993 259.191 63.3476 258.022 60.9111C256.882 58.5317 256.454 55.6963 256.768 52.4762C256.953 50.5242 257.495 48.6434 258.364 46.8909C259.234 45.1526 260.388 43.5711 261.799 42.2032C263.196 40.8497 264.807 39.7098 266.617 38.8122C268.442 37.9145 270.38 37.3303 272.39 37.1024C274.314 36.8744 276.124 37.0454 277.778 37.6011C279.36 38.1425 280.785 38.8976 281.997 39.8808C283.18 40.8354 284.192 41.961 285.005 43.2006C285.803 44.4544 286.387 45.7225 286.729 47.0049L287.043 48.159L278.234 57.4916C278.476 57.6483 278.733 57.7908 278.975 57.9475C280.144 58.6884 281.199 59.5433 282.111 60.5122C283.095 61.5523 283.864 62.7634 284.392 64.1027C284.933 65.4991 285.133 67.0664 284.99 68.7904C284.762 71.0844 284.235 73.2359 283.408 75.2306C282.567 77.2396 281.441 79.0491 280.073 80.5737C278.69 82.1267 277.037 83.4091 275.184 84.378C273.316 85.3611 271.278 85.988 269.126 86.2302C268.584 86.3157 268.1 86.3442 267.601 86.3442ZM259.105 71.5403C259.105 71.8538 259.12 72.153 259.134 72.4664C259.191 73.5208 259.348 74.5467 259.59 75.5298C259.832 76.4702 260.189 77.3536 260.645 78.1657C261.058 78.9066 261.586 79.5336 262.213 80.0465C263.096 80.8159 264.037 81.3431 265.149 81.6993C266.261 82.0555 267.373 82.1695 268.584 82.027C270.209 81.8418 271.734 81.3716 273.131 80.6307C274.542 79.8898 275.782 78.9209 276.823 77.7525C277.878 76.5699 278.747 75.1736 279.403 73.6063C280.073 72.0105 280.5 70.2722 280.671 68.4342C280.757 67.3941 280.643 66.4679 280.344 65.6843C280.016 64.8437 279.56 64.117 278.947 63.4616C278.277 62.7492 277.507 62.1222 276.652 61.5808C276.167 61.2674 275.668 60.9824 275.169 60.6974L272.675 63.3476L273.117 59.6003C272.347 59.2014 271.606 58.8452 270.893 58.5032C269.824 58.0045 268.941 57.4773 268.214 56.9359C267.244 56.2092 266.603 55.2404 266.361 54.1432C266.133 53.1174 266.218 52.12 266.603 51.1796C266.945 50.3247 267.529 49.5553 268.299 48.8999C269.126 48.2017 270.152 47.7743 271.321 47.646C272.732 47.4893 273.944 47.7173 274.941 48.3585C275.854 48.9569 276.566 49.8118 277.037 50.8946C277.193 51.2651 277.336 51.664 277.436 52.0772L282.197 47.0334C281.983 46.5347 281.712 46.0218 281.384 45.5231C280.828 44.6682 280.115 43.8845 279.289 43.2006C278.476 42.5452 277.507 42.018 276.395 41.6476C275.355 41.2913 274.157 41.1916 272.875 41.3483C271.349 41.5193 269.881 41.961 268.499 42.6449C267.102 43.3431 265.847 44.2265 264.764 45.2666C263.709 46.2925 262.84 47.4893 262.184 48.7859C261.543 50.0825 261.144 51.4646 261.015 52.8894C260.787 55.3258 261.072 57.4061 261.871 59.0589C262.64 60.6689 264.137 62.0795 266.332 63.2621C267.458 63.889 268.499 64.4162 269.425 64.8437C270.48 65.3281 271.406 65.8125 272.19 66.2685C273.088 66.8099 273.773 67.3513 274.314 67.9355C275.112 68.8189 275.483 69.9018 275.383 71.0844C275.226 72.3525 274.614 73.4353 273.587 74.276C272.661 75.0454 271.492 75.5156 270.081 75.6723C267.586 75.9573 266.418 74.7604 265.947 74.0338C265.662 73.5921 265.42 73.0934 265.235 72.5234L259.105 71.5403ZM268.94 69.3603L269.083 70.3007C269.169 70.8279 269.283 71.1984 269.397 71.4406C269.454 71.4406 269.511 71.4406 269.596 71.4263C270.152 71.3551 270.58 71.2126 270.865 70.9846C270.993 70.8849 271.05 70.7994 271.093 70.7424C270.893 70.5572 270.565 70.2722 269.995 69.9445C269.667 69.7593 269.325 69.5598 268.94 69.3603ZM272.148 51.8493C272.048 51.8493 271.934 51.8493 271.806 51.8635C271.364 51.9205 271.164 52.0487 271.036 52.1485C270.793 52.348 270.637 52.5474 270.551 52.7612C270.508 52.8609 270.48 52.9891 270.523 53.2029C270.537 53.2741 270.622 53.3596 270.751 53.4736C271.25 53.844 271.905 54.2287 272.704 54.5992C272.96 54.7274 273.231 54.8556 273.487 54.9839C273.487 54.7702 273.473 54.5564 273.459 54.357C273.402 53.6446 273.274 53.0461 273.074 52.5759C272.946 52.2767 272.789 52.063 272.589 51.9348C272.547 51.8778 272.39 51.8493 272.148 51.8493Z" fill="#4EB32E"/>
<path d="M2.93628 81.0866L5.73002 47.3753L8.28145 44.6681L5.91532 44.9674C5.95808 44.3119 5.94383 43.571 5.88681 42.7731C5.8298 41.961 5.71577 41.1773 5.55898 40.4222C5.40218 39.667 5.21689 38.9974 5.00308 38.4132C4.78927 37.829 4.56121 37.4016 4.33315 37.1451L19.713 35.2358C21.8796 34.9651 23.647 35.1646 25.0154 35.8343C26.3838 36.5039 27.4243 37.4586 28.1655 38.7124C28.9067 39.9662 29.3771 41.4338 29.5909 43.1293C29.8047 44.8106 29.8332 46.5632 29.7049 48.3869C29.5624 50.1537 29.2488 51.9347 28.7499 53.7158C28.251 55.4968 27.5241 57.1211 26.5691 58.6029C25.6141 60.0847 24.374 61.3386 22.8631 62.3644C21.3522 63.3903 19.5134 64.0315 17.3326 64.3022L13.6694 64.7581L12.4008 79.9182L2.93628 81.0866ZM14.5531 54.129L17.9313 53.7158C18.5299 53.6445 18.986 53.445 19.3281 53.1173C19.6702 52.7896 19.9268 52.4192 20.1263 52.006C20.3116 51.5928 20.4257 51.1653 20.4827 50.7094C20.5255 50.2535 20.5682 49.8403 20.5967 49.4698C20.6395 49.1421 20.6537 48.7431 20.668 48.3014C20.668 47.8455 20.6252 47.4323 20.5112 47.0334C20.3972 46.6344 20.1976 46.3209 19.9125 46.0645C19.6275 45.8223 19.1856 45.7225 18.5869 45.7938L15.2088 46.207L14.5531 54.129Z" fill="url(#paint0_linear_73_188)" stroke="#4EB32E" stroke-width="3" stroke-miterlimit="10"/>
<path d="M30.1895 76.9261L33.2255 43.2291L35.7912 40.5504L33.4251 40.8211C33.4678 40.1657 33.4678 39.4248 33.4108 38.6269C33.3538 37.8148 33.254 37.0311 33.1115 36.2759C32.9689 35.5208 32.7836 34.8511 32.5698 34.2527C32.356 33.6685 32.1422 33.2411 31.9142 32.9846L47.4223 31.1751C49.3608 30.9471 50.9857 31.1323 52.3113 31.7023C53.6369 32.2722 54.6917 33.1271 55.4899 34.2384C56.2739 35.3498 56.8155 36.6321 57.1149 38.0855C57.3999 39.5388 57.4712 41.0348 57.3287 42.5594C57.1861 44.3689 56.6302 46.3209 55.7037 48.4012C54.763 50.4957 53.3804 52.2909 51.5559 53.8012L54.934 74.0195L44.6856 75.2163L42.2339 57.2066L41.3502 57.3063L39.654 75.7863L30.1895 76.9261ZM42.2196 47.2756L45.6548 46.8766C46.0824 46.8196 46.4673 46.6771 46.7809 46.4349C47.0944 46.1927 47.351 45.922 47.5506 45.6085C47.7501 45.2951 47.9069 44.9816 48.0067 44.6681C48.1065 44.3547 48.1635 44.084 48.192 43.8845C48.2062 43.685 48.192 43.4428 48.135 43.1863C48.078 42.9299 47.9924 42.6876 47.8356 42.4597C47.6931 42.2317 47.4935 42.0465 47.2227 41.8897C46.9662 41.733 46.5956 41.6903 46.1252 41.7473L42.69 42.1462L42.2196 47.2756Z" fill="url(#paint1_linear_73_188)" stroke="#4EB32E" stroke-width="3" stroke-miterlimit="10"/>
<path d="M69.074 70.8279C66.9359 70.9846 65.1399 70.7994 63.7145 70.258C62.2749 69.7165 61.1346 68.9186 60.2794 67.8643C59.4242 66.8099 58.797 65.5703 58.4121 64.1312C58.0273 62.6922 57.7707 61.1676 57.6709 59.5291C57.5712 57.8905 57.5854 56.2092 57.7422 54.4994C57.8847 52.7754 58.07 51.1511 58.2696 49.5838C58.4691 47.988 58.7115 46.321 59.025 44.5969C59.3244 42.8729 59.7377 41.1631 60.2509 39.4818C60.764 37.8005 61.4054 36.1905 62.1894 34.6374C62.9733 33.0986 63.9426 31.7165 65.0972 30.5197C66.266 29.3086 67.6343 28.3112 69.2308 27.5276C70.8272 26.7297 72.7087 26.2595 74.8895 26.0885C77.1416 25.9175 79.0089 26.1312 80.4627 26.7297C81.9166 27.3281 83.0854 28.183 83.9407 29.2943C84.7959 30.4057 85.4088 31.7308 85.7651 33.2696C86.1215 34.8084 86.321 36.4327 86.3781 38.1567C86.4351 39.8808 86.3638 41.6475 86.1785 43.4428C85.9932 45.2381 85.8079 46.9479 85.6084 48.5437C85.309 50.9231 84.8529 53.3738 84.2257 55.8958C83.5986 58.4177 82.6863 60.7402 81.4748 62.8631C80.2632 64.9861 78.6525 66.7814 76.657 68.2632C74.6472 69.745 72.1243 70.5999 69.074 70.8279ZM70.1715 60.2557C71.155 60.1845 72.0102 59.6858 72.7229 58.7454C73.4356 57.8193 74.02 56.7364 74.5047 55.4968C74.9893 54.2572 75.3456 53.0176 75.5879 51.7638C75.8303 50.5099 76.0013 49.5126 76.1011 48.7717C76.2009 47.9168 76.3149 46.7769 76.4432 45.3663C76.5715 43.9558 76.5857 42.5879 76.4859 41.2486C76.3862 39.9093 76.1296 38.7836 75.7162 37.829C75.3029 36.8886 74.5902 36.4469 73.5497 36.5324C72.5661 36.6037 71.7252 37.1451 71.041 38.1282C70.3568 39.1114 69.8009 40.2655 69.359 41.5763C68.9172 42.8871 68.5893 44.2122 68.347 45.5516C68.1047 46.8909 67.9479 47.9453 67.8481 48.7289C67.7484 49.5126 67.6343 50.5527 67.4918 51.8635C67.3493 53.1744 67.3207 54.4709 67.392 55.739C67.4633 57.0071 67.7056 58.1042 68.119 59.0019C68.5466 59.9138 69.2165 60.327 70.1715 60.2557Z" fill="url(#paint2_linear_73_188)" stroke="#4EB32E" stroke-width="3" stroke-miterlimit="10"/>
<path d="M81.8452 66.6104L93.4193 43.0011L85.7935 22.4694L97.6384 21.0731L100.104 30.192L104.138 20.3037L116.054 18.8931L104.623 41.676L112.562 62.9914L100.717 64.3877L98.2656 54.8271L94.2888 65.1571L81.8452 66.6104Z" fill="url(#paint3_linear_73_188)" stroke="#4EB32E" stroke-width="3" stroke-miterlimit="10"/>
<path d="M114.586 61.0251L118.036 27.3708L120.63 24.7206L118.264 24.9629C118.321 24.3074 118.321 23.5665 118.278 22.7686C118.235 21.9565 118.135 21.1728 118.007 20.4177C117.865 19.6625 117.694 18.9786 117.494 18.3944C117.294 17.8103 117.081 17.3828 116.853 17.1121L128.598 15.8867L124.079 60.0277L114.586 61.0251Z" fill="url(#paint4_linear_73_188)" stroke="#4EB32E" stroke-width="3" stroke-miterlimit="10"/>
<path d="M130.679 58.6172L132.674 24.8489L135.154 22.0847L132.803 22.4267C132.831 21.7713 132.803 21.0304 132.717 20.2325C132.631 19.4203 132.517 18.6509 132.346 17.8957C132.175 17.1406 131.976 16.4709 131.748 15.901C131.52 15.3311 131.292 14.9036 131.049 14.6472L143.308 12.8376L148.239 29.0664L155.224 11.0851L167.482 9.27557C167.211 9.60328 166.926 10.102 166.613 10.7574C166.313 11.4128 166.028 12.1537 165.772 12.9659C165.515 13.778 165.287 14.6187 165.087 15.4593C164.888 16.3142 164.788 17.0551 164.76 17.7248L162.408 18.0667L164.645 20.1327L162.65 53.901L153.214 55.2973L154.44 34.6659L149.978 48.4724L144.206 49.3273L141.355 36.6037L140.115 57.2351L130.679 58.6172Z" fill="url(#paint5_linear_73_188)" stroke="#4EB32E" stroke-width="3" stroke-miterlimit="10"/>
<path d="M177.731 51.4788C175.592 51.7068 173.796 51.5785 172.357 51.0799C170.903 50.5812 169.734 49.826 168.836 48.8001C167.952 47.7743 167.282 46.5489 166.855 45.1384C166.427 43.7135 166.128 42.189 165.971 40.5647C165.814 38.9261 165.786 37.2591 165.871 35.5351C165.971 33.811 166.085 32.1725 166.242 30.6052C166.384 28.9951 166.584 27.3281 166.841 25.5898C167.097 23.8515 167.439 22.1275 167.895 20.4319C168.352 18.7364 168.95 17.0979 169.677 15.5306C170.404 13.9633 171.331 12.5669 172.457 11.3131C173.583 10.0735 174.923 9.03337 176.49 8.19273C178.058 7.35208 179.926 6.81065 182.106 6.58268C184.359 6.34046 186.226 6.49719 187.708 7.05287C189.191 7.60855 190.374 8.4207 191.272 9.50356C192.17 10.5864 192.825 11.8973 193.224 13.4218C193.623 14.9464 193.88 16.5707 193.994 18.2947C194.094 20.0187 194.094 21.7713 193.966 23.5808C193.837 25.3903 193.709 27.0859 193.552 28.6959C193.324 31.0896 192.954 33.5546 192.398 36.0907C191.856 38.6412 191.015 40.9921 189.86 43.1436C188.72 45.3093 187.167 47.1474 185.214 48.6862C183.275 50.225 180.767 51.1511 177.731 51.4788ZM178.5 40.8924C179.484 40.7784 180.325 40.2512 180.995 39.3108C181.665 38.3562 182.235 37.2591 182.677 36.0195C183.118 34.7657 183.446 33.5118 183.646 32.2437C183.845 30.9756 183.988 29.9783 184.073 29.2373C184.145 28.3682 184.216 27.2283 184.302 25.8178C184.387 24.4072 184.359 23.0251 184.216 21.7C184.073 20.375 183.774 19.2351 183.347 18.309C182.905 17.3828 182.178 16.9696 181.151 17.0836C180.168 17.1834 179.341 17.7533 178.7 18.7507C178.044 19.7623 177.531 20.9306 177.132 22.2557C176.733 23.5808 176.433 24.9201 176.248 26.2595C176.049 27.5988 175.92 28.6674 175.849 29.4511C175.778 30.2347 175.692 31.2891 175.592 32.5999C175.493 33.9108 175.507 35.2073 175.621 36.4754C175.735 37.7435 176.02 38.8264 176.448 39.7098C176.861 40.5932 177.559 40.9921 178.5 40.8924Z" fill="url(#paint6_linear_73_188)" stroke="#4EB32E" stroke-width="3" stroke-miterlimit="10"/>
<path d="M195.163 31.3603L204.998 33.3551C205.112 34.2812 205.34 35.0364 205.682 35.6205C206.024 36.2047 206.708 36.4612 207.749 36.3757C208.732 36.3044 209.545 36.0195 210.172 35.5493C210.799 35.0791 211.156 34.5092 211.27 33.8538C211.341 33.2838 211.198 32.7709 210.828 32.3292C210.457 31.8875 209.93 31.4458 209.231 30.9899C208.533 30.5339 207.706 30.0637 206.737 29.565C205.768 29.0664 204.713 28.4822 203.587 27.7983C201.035 26.288 199.325 24.4927 198.427 22.4267C197.529 20.3607 197.272 17.91 197.657 15.0746C197.885 13.3933 198.413 11.7975 199.239 10.2872C200.066 8.77689 201.121 7.4518 202.404 6.2977C203.687 5.14359 205.155 4.20321 206.794 3.4623C208.433 2.7214 210.143 2.29395 211.925 2.15147C213.55 2.02323 215.033 2.22271 216.358 2.7214C217.698 3.23433 218.853 3.91825 219.836 4.77314C220.82 5.62803 221.632 6.61116 222.273 7.69402C222.915 8.77689 223.357 9.85975 223.599 10.9426L214.135 20.1897C214.291 19.1638 214.363 18.1665 214.32 17.2261C214.291 16.2715 214.135 15.4451 213.864 14.7326C213.593 14.0202 213.18 13.4788 212.638 13.0941C212.096 12.7094 211.355 12.5527 210.443 12.6239C209.687 12.6809 209.046 12.9089 208.519 13.3221C207.991 13.721 207.606 14.1912 207.364 14.7184C207.122 15.2456 207.065 15.8013 207.164 16.4139C207.264 17.0124 207.592 17.5395 208.148 17.9812C208.747 18.4657 209.502 18.9501 210.414 19.4203C211.327 19.9047 212.282 20.4319 213.279 21.0019C214.277 21.5718 215.275 22.1987 216.258 22.8826C217.242 23.5665 218.126 24.3359 218.881 25.2051C219.651 26.0885 220.221 27.0716 220.606 28.183C220.991 29.2943 221.09 30.5482 220.919 31.9302C220.634 33.982 220.093 35.8913 219.266 37.658C218.439 39.4248 217.399 40.9636 216.116 42.2887C214.847 43.5995 213.365 44.6682 211.697 45.4518C210.029 46.2497 208.233 46.7199 206.338 46.8624C204.827 46.9764 203.387 46.7769 202.019 46.2782C200.65 45.7795 199.467 45.0529 198.47 44.1125C197.657 43.4001 197.002 42.5452 196.474 41.5478C195.961 40.5504 195.576 39.4818 195.334 38.3419C195.091 37.2021 194.963 36.0337 194.949 34.8369C194.949 33.6828 195.02 32.5002 195.163 31.3603Z" fill="url(#paint7_linear_73_188)" stroke="#4EB32E" stroke-width="3" stroke-miterlimit="10"/>
<path d="M3.20703 81.6708L6.00077 47.9595L8.5522 45.2523L6.18607 45.5516C6.22883 44.8961 6.21458 44.1552 6.15757 43.3573C6.10055 42.5452 5.98652 41.7615 5.82973 41.0064C5.67294 40.2512 5.48764 39.5816 5.27383 38.9974C5.06002 38.4132 4.83196 37.9858 4.6039 37.7293L19.9837 35.82C22.1503 35.5493 23.9178 35.7488 25.2861 36.4185C26.6545 37.0881 27.695 38.0427 28.4362 39.2966C29.1774 40.5504 29.6478 42.018 29.8616 43.7135C30.0754 45.3948 30.1039 47.1474 29.9756 48.9711C29.8331 50.7379 29.5195 52.5189 29.0206 54.3C28.5218 56.081 27.7948 57.7053 26.8398 59.1871C25.8848 60.6689 24.6447 61.9228 23.1338 62.9486C21.6229 63.9745 19.7842 64.6157 17.6034 64.8864L13.9401 65.3423L12.6715 80.5024L3.20703 81.6708ZM14.8239 54.6989L18.202 54.2857C18.8007 54.2145 19.2568 54.015 19.5989 53.6873C19.941 53.3596 20.1975 52.9891 20.3971 52.5759C20.5824 52.1627 20.6964 51.7353 20.7534 51.2793C20.7962 50.8234 20.839 50.4102 20.8675 50.0397C20.9102 49.712 20.9245 49.3131 20.9387 48.8714C20.9387 48.4155 20.896 48.0023 20.7819 47.6033C20.6679 47.2044 20.4684 46.8909 20.1833 46.6344C19.8982 46.3922 19.4563 46.2925 18.8577 46.3637L15.4795 46.7769L14.8239 54.6989Z" fill="url(#paint8_linear_73_188)" stroke="#1A1A1A" stroke-width="0.75" stroke-miterlimit="10"/>
<path d="M30.4602 77.5103L33.4963 43.8133L36.0619 41.1346L33.6958 41.4053C33.7386 40.7499 33.7386 40.009 33.6816 39.2111C33.6245 38.3989 33.5248 37.6153 33.3822 36.8601C33.2397 36.105 33.0544 35.4353 32.8406 34.8369C32.6268 34.2527 32.413 33.8253 32.1849 33.5688L47.693 31.7593C49.6315 31.5313 51.2565 31.7165 52.5821 32.2865C53.9077 32.8564 54.9625 33.7113 55.7607 34.8226C56.5446 35.934 57.0863 37.2163 57.3856 38.6697C57.6707 40.123 57.742 41.619 57.5994 43.1436C57.4569 44.9531 56.901 46.9051 55.9745 48.9854C55.0337 51.0799 53.6511 52.8751 51.8266 54.3854L55.2048 74.6037L44.9563 75.8005L42.5047 57.7908L41.6209 57.8905L39.9247 76.3704L30.4602 77.5103ZM42.4904 47.8455L45.9256 47.4466C46.3532 47.3896 46.738 47.2471 47.0516 47.0049C47.3652 46.7627 47.6218 46.4919 47.8213 46.1785C48.0209 45.865 48.1777 45.5516 48.2774 45.2381C48.3772 44.9246 48.4342 44.6539 48.4627 44.4544C48.477 44.255 48.4627 44.0127 48.4057 43.7563C48.3487 43.4998 48.2632 43.2576 48.1064 43.0296C47.9639 42.8016 47.7643 42.6164 47.4935 42.4597C47.2369 42.303 46.8663 42.2602 46.3959 42.3172L42.9608 42.7162L42.4904 47.8455Z" fill="url(#paint9_linear_73_188)" stroke="#1A1A1A" stroke-width="0.75" stroke-miterlimit="10"/>
<path d="M69.3447 71.3978C67.2066 71.5546 65.4107 71.3693 63.9853 70.8279C62.5457 70.2865 61.4054 69.4886 60.5501 68.4342C59.6949 67.3798 59.0677 66.1402 58.6829 64.7012C58.298 63.2621 58.0415 61.7375 57.9417 60.099C57.8419 58.4605 57.8562 56.7792 58.013 55.0694C58.1555 53.3453 58.3408 51.7211 58.5403 50.1537C58.7399 48.5579 58.9822 46.8909 59.2958 45.1669C59.5951 43.4428 60.0085 41.7331 60.5216 40.0518C61.0348 38.3705 61.6762 36.7604 62.4601 35.2074C63.2441 33.6686 64.2134 32.2865 65.3679 31.0896C66.5367 29.8785 67.9051 28.8812 69.5015 28.0975C71.0979 27.2996 72.9794 26.8294 75.1603 26.6584C77.4124 26.4875 79.2796 26.7012 80.7335 27.2996C82.1874 27.898 83.3562 28.7529 84.2114 29.8643C85.0666 30.9756 85.6796 32.3007 86.0359 33.8395C86.3922 35.3783 86.5918 37.0026 86.6488 38.7267C86.7058 40.4507 86.6346 42.2175 86.4493 44.0128C86.264 45.808 86.0787 47.5178 85.8791 49.1136C85.5798 51.4931 85.1237 53.9438 84.4965 56.4657C83.8693 58.9876 82.9571 61.3101 81.7455 63.4331C80.5339 65.5561 78.9233 67.3513 76.9277 68.8332C74.9179 70.315 72.395 71.1699 69.3447 71.3978ZM70.4423 60.8399C71.4258 60.7687 72.281 60.27 72.9937 59.3296C73.7064 58.4035 74.2908 57.3206 74.7754 56.081C75.26 54.8414 75.6164 53.6018 75.8587 52.348C76.101 51.0941 76.2721 50.0968 76.3718 49.3558C76.4716 48.501 76.5856 47.3611 76.7139 45.9505C76.8422 44.5399 76.8565 43.1721 76.7567 41.8328C76.6569 40.4935 76.4003 39.3678 75.987 38.4132C75.5736 37.4728 74.8609 37.0311 73.8204 37.1166C72.8369 37.1879 71.9959 37.7293 71.3117 38.7124C70.6276 39.6956 70.0717 40.8497 69.6298 42.1605C69.1879 43.4713 68.8601 44.7964 68.6178 46.1358C68.3755 47.4751 68.2187 48.5295 68.1189 49.3131C68.0191 50.0968 67.9051 51.1369 67.7625 52.4477C67.62 53.7585 67.5915 55.0551 67.6628 56.3232C67.734 57.5913 67.9763 58.6884 68.3897 59.5861C68.8173 60.498 69.5015 60.9112 70.4423 60.8399Z" fill="url(#paint10_linear_73_188)" stroke="#1A1A1A" stroke-width="0.75" stroke-miterlimit="10"/>
<path d="M82.116 67.1946L93.69 43.5853L86.0643 23.0536L97.9092 21.6573L100.375 30.7762L104.409 20.8879L116.325 19.4773L104.879 42.2602L112.819 63.5756L100.974 64.9719L98.5221 55.4113L94.5453 65.7413L82.116 67.1946Z" fill="url(#paint11_linear_73_188)" stroke="#1A1A1A" stroke-width="0.75" stroke-miterlimit="10"/>
<path d="M114.857 61.6093L118.306 27.955L120.901 25.3048L118.534 25.5471C118.591 24.8916 118.591 24.1507 118.549 23.3528C118.506 22.5407 118.406 21.757 118.278 21.0019C118.135 20.2467 117.964 19.5628 117.765 18.9786C117.565 18.3945 117.351 17.967 117.123 17.6963L128.868 16.4709L124.35 60.6119L114.857 61.6093Z" fill="url(#paint12_linear_73_188)" stroke="#1A1A1A" stroke-width="0.75" stroke-miterlimit="10"/>
<path d="M130.949 59.2014L132.945 25.4331L135.425 22.6689L133.073 23.0109C133.102 22.3555 133.073 21.6146 132.988 20.8167C132.902 20.0045 132.788 19.2351 132.617 18.4799C132.446 17.7248 132.247 17.0551 132.018 16.4852C131.79 15.9153 131.562 15.4878 131.32 15.2313L143.578 13.4218L148.51 29.6505L155.494 11.6693L167.753 9.85977C167.482 10.1875 167.197 10.6862 166.883 11.3416C166.584 11.997 166.299 12.7379 166.042 13.5501C165.786 14.3622 165.558 15.2029 165.358 16.0435C165.159 16.8984 165.059 17.6393 165.03 18.309L162.678 18.6509L164.916 20.7169L162.921 54.4852L153.485 55.8815L154.711 35.2501L150.249 49.0566L144.476 49.9115L141.626 37.1879L140.4 57.8193L130.949 59.2014Z" fill="url(#paint13_linear_73_188)" stroke="#1A1A1A" stroke-width="0.75" stroke-miterlimit="10"/>
<path d="M178.001 52.063C175.863 52.291 174.067 52.1627 172.628 51.664C171.174 51.1653 170.005 50.4102 169.107 49.3843C168.223 48.3584 167.553 47.1331 167.126 45.7225C166.698 44.2977 166.399 42.7731 166.242 41.1488C166.085 39.5103 166.057 37.8433 166.142 36.1192C166.242 34.3952 166.356 32.7566 166.513 31.1893C166.655 29.5793 166.855 27.9123 167.111 26.174C167.368 24.4357 167.71 22.7117 168.166 21.0161C168.622 19.3206 169.221 17.682 169.948 16.1147C170.675 14.5474 171.601 13.1511 172.727 11.8973C173.853 10.6577 175.193 9.61754 176.761 8.77689C178.329 7.93625 180.196 7.39482 182.377 7.16685C184.629 6.92463 186.497 7.08136 187.979 7.63704C189.461 8.19272 190.644 9.00487 191.542 10.0877C192.44 11.1706 193.096 12.4814 193.495 14.006C193.894 15.5305 194.151 17.1548 194.265 18.8789C194.365 20.6029 194.365 22.3554 194.236 24.165C194.108 25.9745 193.98 27.67 193.823 29.2801C193.595 31.6738 193.224 34.1387 192.668 36.6749C192.127 39.2253 191.286 41.5763 190.131 43.7278C188.991 45.8935 187.437 47.7315 185.485 49.2703C183.546 50.8091 181.037 51.7353 178.001 52.063ZM178.771 41.4623C179.754 41.3483 180.595 40.8211 181.265 39.8808C181.935 38.9261 182.505 37.829 182.947 36.5894C183.389 35.3356 183.717 34.0817 183.917 32.8136C184.116 31.5455 184.259 30.5482 184.344 29.8073C184.415 28.9381 184.487 27.7983 184.572 26.3877C184.658 24.9771 184.629 23.595 184.487 22.27C184.344 20.9449 184.045 19.805 183.617 18.8789C183.175 17.9527 182.448 17.5395 181.422 17.6535C180.439 17.7533 179.612 18.3232 178.971 19.3206C178.315 20.3322 177.802 21.5006 177.403 22.8256C177.003 24.1507 176.704 25.4901 176.519 26.8294C176.319 28.1687 176.191 29.2373 176.12 30.021C176.048 30.8046 175.963 31.859 175.863 33.1698C175.763 34.4807 175.778 35.7773 175.892 37.0454C176.006 38.3135 176.291 39.3963 176.718 40.2797C177.132 41.1773 177.83 41.5763 178.771 41.4623Z" fill="url(#paint14_linear_73_188)" stroke="#1A1A1A" stroke-width="0.75" stroke-miterlimit="10"/>
<path d="M195.434 31.9303L205.269 33.925C205.383 34.8511 205.611 35.6063 205.953 36.1905C206.295 36.7747 206.979 37.0311 208.02 36.9456C209.003 36.8744 209.816 36.5894 210.443 36.1192C211.07 35.649 211.426 35.0791 211.54 34.4237C211.612 33.8538 211.469 33.3408 211.098 32.8991C210.728 32.4574 210.2 32.0158 209.502 31.5598C208.804 31.1039 207.977 30.6337 207.008 30.135C206.038 29.6363 204.984 29.0521 203.858 28.3682C201.306 26.8579 199.596 25.0626 198.698 22.9966C197.8 20.9306 197.543 18.4799 197.928 15.6445C198.156 13.9633 198.683 12.3675 199.51 10.8571C200.337 9.34683 201.392 8.02175 202.674 6.86765C203.957 5.71354 205.425 4.77316 207.065 4.03225C208.704 3.29134 210.414 2.8639 212.196 2.72141C213.821 2.59318 215.303 2.79265 216.629 3.29134C217.969 3.80428 219.123 4.48819 220.107 5.34309C221.09 6.19798 221.903 7.18111 222.544 8.26397C223.186 9.34684 223.628 10.4297 223.87 11.5126L214.405 20.7597C214.562 19.7338 214.633 18.7364 214.591 17.796C214.562 16.8414 214.405 16.015 214.134 15.3026C213.864 14.5902 213.45 14.0487 212.909 13.664C212.367 13.2793 211.626 13.1226 210.714 13.1939C209.958 13.2508 209.317 13.4788 208.789 13.892C208.262 14.291 207.877 14.7612 207.635 15.2883C207.392 15.8155 207.335 16.3712 207.435 16.9839C207.535 17.5823 207.863 18.1095 208.419 18.5512C209.017 19.0356 209.773 19.5201 210.685 19.9903C211.597 20.4747 212.552 21.0019 213.55 21.5718C214.548 22.1417 215.546 22.7687 216.529 23.4526C217.513 24.1365 218.396 24.9059 219.152 25.775C219.922 26.6584 220.492 27.6416 220.877 28.7529C221.261 29.8643 221.361 31.1181 221.19 32.5002C220.905 34.5519 220.363 36.4612 219.537 38.228C218.71 39.9948 217.669 41.5336 216.387 42.8586C215.118 44.1695 213.636 45.2381 211.968 46.0218C210.3 46.8196 208.504 47.2898 206.608 47.4323C205.098 47.5463 203.658 47.3468 202.29 46.8481C200.921 46.3495 199.738 45.6228 198.74 44.6824C197.928 43.97 197.272 43.1151 196.745 42.1177C196.232 41.1204 195.847 40.0517 195.605 38.9119C195.362 37.772 195.234 36.6037 195.22 35.4068C195.22 34.2527 195.291 33.0844 195.434 31.9303Z" fill="url(#paint15_linear_73_188)" stroke="#1A1A1A" stroke-width="0.75" stroke-miterlimit="10"/>
<path d="M133.928 96.3037L143.635 98.8826C143.692 99.8088 143.878 100.578 144.177 101.177C144.491 101.775 145.16 102.074 146.187 102.06C147.185 102.046 147.997 101.818 148.653 101.376C149.308 100.934 149.693 100.393 149.85 99.7518C149.964 99.1819 149.836 98.6689 149.494 98.213C149.152 97.757 148.638 97.2726 147.983 96.7739C147.313 96.2752 146.515 95.7623 145.574 95.2066C144.633 94.6509 143.621 94.0097 142.538 93.2546C140.086 91.5875 138.475 89.7068 137.706 87.598C136.936 85.4893 136.822 83.0244 137.378 80.2175C137.706 78.5504 138.333 76.9974 139.245 75.5441C140.157 74.0907 141.283 72.8226 142.638 71.754C143.992 70.6854 145.503 69.8163 147.185 69.1894C148.866 68.5482 150.591 68.2205 152.387 68.192C154.012 68.1635 155.48 68.4484 156.777 69.0326C158.074 69.6168 159.186 70.372 160.127 71.2838C161.053 72.1957 161.809 73.2216 162.379 74.3472C162.949 75.4728 163.334 76.5842 163.505 77.667L153.513 86.3442C153.741 85.3326 153.855 84.3495 153.884 83.3948C153.912 82.4402 153.798 81.5995 153.57 80.8729C153.342 80.1462 152.957 79.5763 152.444 79.1631C151.917 78.7499 151.204 78.5504 150.292 78.5647C149.536 78.5789 148.881 78.7642 148.339 79.1489C147.797 79.5336 147.384 79.961 147.113 80.4739C146.842 80.9869 146.743 81.5426 146.814 82.1552C146.885 82.7679 147.185 83.3093 147.698 83.7795C148.268 84.2925 148.98 84.8197 149.864 85.3468C150.748 85.874 151.674 86.4582 152.629 87.0994C153.599 87.7263 154.554 88.4102 155.494 89.1511C156.435 89.892 157.262 90.7042 157.975 91.6303C158.687 92.5564 159.2 93.5823 159.514 94.7079C159.828 95.8335 159.856 97.0874 159.6 98.4694C159.2 100.507 158.531 102.373 157.604 104.097C156.678 105.807 155.537 107.289 154.183 108.529C152.829 109.768 151.304 110.737 149.579 111.435C147.854 112.133 146.044 112.49 144.148 112.532C142.638 112.561 141.212 112.276 139.872 111.692C138.532 111.108 137.392 110.31 136.466 109.312C135.696 108.557 135.083 107.66 134.627 106.634C134.171 105.608 133.857 104.525 133.672 103.371C133.487 102.217 133.43 101.048 133.501 99.8515C133.558 98.6119 133.7 97.4436 133.928 96.3037Z" fill="url(#paint16_linear_73_188)"/>
<path d="M143.963 113.017C142.452 113.017 141.013 112.718 139.659 112.133C138.262 111.521 137.05 110.68 136.067 109.64C135.268 108.856 134.613 107.902 134.142 106.819C133.672 105.75 133.344 104.61 133.159 103.414C132.974 102.231 132.917 101.006 132.974 99.7803C133.031 98.5692 133.173 97.3723 133.401 96.204L133.515 95.6483L144.149 98.4694L144.177 98.8541C144.22 99.709 144.391 100.407 144.662 100.949C144.733 101.091 144.961 101.533 146.187 101.533C147.071 101.519 147.797 101.319 148.353 100.949C148.895 100.592 149.209 100.165 149.323 99.6378C149.394 99.2388 149.323 98.8826 149.066 98.5407C148.752 98.1275 148.282 97.6858 147.655 97.2156C147.014 96.7454 146.215 96.2182 145.289 95.6768C144.334 95.1211 143.293 94.4514 142.21 93.6963C139.673 91.9865 137.991 89.9918 137.178 87.7833C136.38 85.5891 136.266 83.0101 136.822 80.1177C137.164 78.3937 137.82 76.7552 138.761 75.2591C139.701 73.763 140.884 72.4379 142.281 71.3266C143.678 70.2152 145.26 69.3318 146.971 68.6764C148.695 68.021 150.506 67.679 152.344 67.6505C154.055 67.622 155.609 67.9213 156.963 68.5339C158.317 69.1466 159.486 69.9303 160.469 70.8991C161.438 71.8538 162.222 72.9224 162.821 74.105C163.42 75.2733 163.819 76.4417 164.004 77.5816L164.047 77.8808L153.485 87.0424C154.254 87.5696 155.024 88.1252 155.78 88.7094C156.763 89.4646 157.618 90.3337 158.36 91.2883C159.115 92.2572 159.657 93.3543 159.999 94.5512C160.341 95.748 160.369 97.1016 160.099 98.5549C159.685 100.635 159.001 102.587 158.046 104.34C157.105 106.092 155.908 107.631 154.525 108.913C153.128 110.181 151.532 111.193 149.765 111.92C147.983 112.632 146.101 113.017 144.134 113.045C144.092 113.017 144.02 113.017 143.963 113.017ZM134.342 96.9734C134.185 97.9138 134.085 98.8684 134.028 99.8373C133.971 100.991 134.028 102.131 134.199 103.257C134.37 104.354 134.67 105.408 135.112 106.391C135.539 107.346 136.109 108.201 136.836 108.899C137.72 109.854 138.818 110.609 140.086 111.165C141.355 111.72 142.723 111.977 144.134 111.963C145.959 111.934 147.726 111.578 149.38 110.908C151.033 110.238 152.53 109.298 153.827 108.115C155.124 106.919 156.236 105.48 157.134 103.827C158.032 102.16 158.687 100.322 159.072 98.3554C159.315 97.0731 159.286 95.8763 158.987 94.8361C158.687 93.7818 158.203 92.8129 157.533 91.9438C156.849 91.0604 156.05 90.2625 155.138 89.5643C154.326 88.9374 153.485 88.3247 152.658 87.769L152.615 87.7975L152.63 87.7405C152.515 87.6693 152.416 87.598 152.302 87.5268C151.347 86.8999 150.42 86.3157 149.551 85.7885C148.638 85.2328 147.883 84.6914 147.299 84.15C146.686 83.5801 146.315 82.9246 146.244 82.1837C146.158 81.4713 146.287 80.8016 146.6 80.2032C146.914 79.619 147.384 79.1061 147.997 78.6929C148.638 78.2655 149.394 78.0375 150.249 78.0232C151.29 77.9947 152.131 78.2512 152.744 78.7357C153.356 79.2201 153.784 79.8755 154.055 80.7019C154.297 81.4856 154.411 82.3832 154.383 83.3948C154.368 83.9078 154.326 84.4207 154.269 84.9479L162.892 77.4533C162.707 76.5129 162.365 75.5441 161.866 74.5752C161.324 73.5066 160.597 72.5234 159.714 71.6543C158.83 70.7852 157.761 70.0585 156.521 69.5028C155.295 68.9471 153.927 68.6764 152.359 68.7049C150.648 68.7334 148.952 69.0611 147.341 69.6738C145.731 70.2865 144.248 71.1129 142.937 72.153C141.64 73.1788 140.542 74.4184 139.659 75.8148C138.789 77.2111 138.19 78.7214 137.863 80.3172C137.335 83.0101 137.435 85.4038 138.176 87.4128C138.903 89.4076 140.457 91.2313 142.809 92.8129C143.878 93.5538 144.89 94.2092 145.816 94.7507C146.771 95.3206 147.598 95.8478 148.282 96.3607C148.995 96.8879 149.522 97.4008 149.907 97.8995C150.349 98.4837 150.491 99.1391 150.363 99.8658C150.178 100.664 149.707 101.319 148.938 101.832C148.211 102.331 147.284 102.587 146.187 102.601C144.961 102.63 144.106 102.231 143.692 101.433C143.393 100.849 143.208 100.136 143.122 99.3101L134.342 96.9734ZM150.363 79.0776C150.335 79.0776 150.306 79.0776 150.278 79.0776C149.622 79.0919 149.08 79.2486 148.61 79.5621C148.14 79.8898 147.783 80.2602 147.555 80.6877C147.327 81.1009 147.256 81.5568 147.313 82.0555C147.37 82.5399 147.598 82.9531 148.026 83.3521C148.567 83.8365 149.266 84.3495 150.121 84.8624C151.005 85.3896 151.931 85.9738 152.886 86.6149L152.972 86.216C153.185 85.2328 153.299 84.2782 153.328 83.3663C153.356 82.4829 153.257 81.685 153.043 81.0296C152.843 80.4027 152.53 79.9325 152.088 79.5763C151.675 79.2343 151.104 79.0776 150.363 79.0776Z" fill="#1A1A1A"/>
<path d="M172.656 78.1942L179.541 77.5531L181.308 61.9513L190.801 61.0679L185.827 105.166L176.334 106.049L178.343 87.9258L171.459 88.5669L169.449 106.691L159.956 107.574L163.748 73.9625L166.37 71.3408L163.99 71.5688C164.047 70.9134 164.061 70.1867 164.018 69.3746C163.976 68.5624 163.904 67.7788 163.762 67.0236C163.634 66.2685 163.462 65.5846 163.277 65.0004C163.078 64.402 162.878 63.9745 162.65 63.718L174.395 62.6209L172.656 78.1942Z" fill="url(#paint17_linear_73_188)"/>
<path d="M159.357 108.172L163.249 73.7203L164.959 72.0105L163.42 72.153L163.477 71.5118C163.534 70.8849 163.548 70.1725 163.505 69.3888C163.463 68.6052 163.391 67.8358 163.263 67.0949C163.135 66.3682 162.978 65.7128 162.793 65.1429C162.579 64.4874 162.379 64.1882 162.265 64.0315L161.595 63.2478L175.022 61.994L173.255 77.5958L179.056 77.0544L180.824 61.4526L191.4 60.4552L186.311 105.636L175.735 106.634L177.745 88.5099L171.944 89.0514L169.934 107.175L159.357 108.172ZM164.261 74.2047L160.555 106.976L168.964 106.192L170.974 88.0682L178.942 87.3273L176.932 105.451L185.342 104.667L190.188 61.6521L181.779 62.4357L180.011 78.0375L172.043 78.7784L173.811 63.1766L163.548 64.1312C163.634 64.3307 163.719 64.5444 163.805 64.7867C164.004 65.3993 164.175 66.1117 164.318 66.8954C164.446 67.6648 164.532 68.4769 164.574 69.3176C164.603 69.9018 164.603 70.4432 164.574 70.9561L167.796 70.6569L164.261 74.2047Z" fill="#1A1A1A"/>
<path d="M201.035 99.6378C198.897 99.88 197.116 99.766 195.647 99.2816C194.193 98.7972 193.01 98.042 192.112 97.0304C191.214 96.0187 190.545 94.7934 190.103 93.3828C189.661 91.9723 189.347 90.4477 189.176 88.8092C189.005 87.1706 188.962 85.5036 189.048 83.7795C189.133 82.0555 189.233 80.417 189.376 78.8496C189.504 77.2396 189.689 75.5726 189.932 73.8343C190.174 72.096 190.516 70.372 190.958 68.6764C191.4 66.9666 191.984 65.3423 192.697 63.7608C193.41 62.1935 194.336 60.7829 195.448 59.5291C196.56 58.2752 197.899 57.2209 199.467 56.3802C201.035 55.5253 202.888 54.9696 205.069 54.7274C207.321 54.4709 209.188 54.6134 210.671 55.1549C212.153 55.6963 213.351 56.5084 214.249 57.5771C215.161 58.6599 215.816 59.9565 216.23 61.4811C216.643 63.0056 216.914 64.6299 217.028 66.3397C217.142 68.0637 217.156 69.8163 217.042 71.6258C216.928 73.4353 216.814 75.1451 216.672 76.7409C216.472 79.1346 216.102 81.5996 215.588 84.15C215.061 86.7004 214.234 89.0514 213.108 91.2313C211.982 93.3971 210.443 95.2636 208.504 96.8166C206.566 98.3697 204.071 99.2816 201.035 99.6378ZM201.72 89.0371C202.703 88.9231 203.53 88.3817 204.2 87.4271C204.87 86.4724 205.425 85.3753 205.853 84.1215C206.281 82.8676 206.594 81.6138 206.794 80.3457C206.979 79.0776 207.122 78.0802 207.193 77.3393C207.25 76.4702 207.321 75.3303 207.393 73.9198C207.464 72.5092 207.435 71.1271 207.278 69.802C207.122 68.4769 206.822 67.3513 206.38 66.4252C205.939 65.4991 205.197 65.1001 204.171 65.2141C203.188 65.3281 202.375 65.898 201.734 66.9096C201.092 67.9213 200.579 69.0896 200.194 70.4147C199.809 71.7398 199.524 73.0791 199.339 74.4327C199.154 75.7863 199.026 76.8406 198.954 77.6243C198.883 78.408 198.812 79.4623 198.726 80.7732C198.641 82.084 198.655 83.3806 198.783 84.6487C198.912 85.9168 199.197 86.9996 199.638 87.883C200.08 88.7664 200.779 89.1511 201.72 89.0371Z" fill="url(#paint18_linear_73_188)"/>
<path d="M198.997 100.293C197.671 100.293 196.503 100.122 195.491 99.7945C193.951 99.2816 192.683 98.4694 191.728 97.3866C190.787 96.318 190.074 95.0214 189.604 93.5396C189.148 92.1005 188.834 90.5189 188.663 88.8661C188.492 87.2134 188.449 85.5036 188.521 83.751C188.606 82.027 188.706 80.36 188.848 78.7927C188.977 77.1969 189.176 75.5013 189.404 73.7488C189.647 71.9963 189.989 70.2437 190.445 68.5197C190.887 66.7957 191.485 65.1144 192.212 63.5186C192.953 61.9085 193.908 60.441 195.049 59.1444C196.203 57.8478 197.6 56.7507 199.211 55.8815C200.822 54.9981 202.774 54.414 204.998 54.1575C207.321 53.8868 209.288 54.0435 210.842 54.6134C212.41 55.1834 213.693 56.0525 214.648 57.1924C215.603 58.318 216.301 59.7 216.743 61.2958C217.171 62.8489 217.441 64.5159 217.57 66.2685C217.684 68.0068 217.698 69.802 217.584 71.6258C217.47 73.4353 217.356 75.1451 217.213 76.7552C217.014 79.1489 216.643 81.6565 216.116 84.2212C215.588 86.8002 214.733 89.2366 213.593 91.4308C212.438 93.6535 210.842 95.5913 208.846 97.1871C206.837 98.7972 204.228 99.7945 201.107 100.151C200.365 100.25 199.667 100.293 198.997 100.293ZM207.122 55.1121C206.495 55.1121 205.825 55.1549 205.112 55.2404C203.017 55.4826 201.206 56.024 199.71 56.8362C198.213 57.6483 196.916 58.6742 195.833 59.8853C194.764 61.0964 193.866 62.4642 193.167 63.9888C192.469 65.5276 191.884 67.1519 191.457 68.8189C191.015 70.4859 190.687 72.21 190.445 73.9198C190.202 75.6438 190.017 77.3251 189.889 78.9066C189.746 80.4597 189.647 82.1125 189.561 83.8223C189.476 85.5178 189.533 87.1706 189.689 88.7807C189.86 90.3765 190.16 91.8725 190.587 93.2404C191.001 94.5797 191.642 95.748 192.497 96.7027C193.324 97.6431 194.436 98.3555 195.79 98.7971C197.173 99.2531 198.897 99.3671 200.936 99.1249C203.858 98.7829 206.281 97.871 208.134 96.3892C210.001 94.8931 211.512 93.0694 212.595 90.9749C213.693 88.8661 214.505 86.5294 215.018 84.036C215.531 81.5141 215.902 79.0491 216.102 76.6982C216.23 75.1024 216.358 73.3926 216.472 71.5831C216.586 69.8163 216.572 68.0495 216.458 66.3682C216.344 64.6869 216.073 63.0911 215.674 61.6093C215.275 60.1702 214.648 58.9306 213.793 57.919C212.952 56.9216 211.825 56.1522 210.443 55.6536C209.531 55.2831 208.405 55.1121 207.122 55.1121ZM201.42 89.5928C200.422 89.5928 199.638 89.0941 199.154 88.111C198.683 87.1706 198.37 86.0165 198.242 84.6914C198.113 83.3948 198.085 82.0697 198.185 80.7304C198.27 79.4053 198.356 78.3652 198.427 77.5673C198.498 76.7837 198.626 75.7008 198.812 74.3472C198.997 72.9794 199.296 71.6116 199.681 70.258C200.08 68.8901 200.622 67.6648 201.292 66.6104C202.019 65.4563 202.974 64.8152 204.128 64.6727C205.383 64.5302 206.338 65.0431 206.879 66.183C207.35 67.1661 207.678 68.3487 207.834 69.7308C207.991 71.0844 208.034 72.4949 207.948 73.934C207.877 75.3588 207.806 76.4987 207.749 77.3536C207.678 78.123 207.535 79.1346 207.35 80.4027C207.15 81.6993 206.822 82.9959 206.381 84.2782C205.939 85.5748 205.354 86.7289 204.656 87.7263C203.9 88.8092 202.931 89.4218 201.791 89.5501C201.663 89.5786 201.534 89.5928 201.42 89.5928ZM204.513 65.7128C204.428 65.7128 204.328 65.7128 204.228 65.727C203.401 65.8268 202.732 66.297 202.176 67.1661C201.563 68.135 201.064 69.2748 200.693 70.5429C200.308 71.8395 200.038 73.1646 199.852 74.4754C199.667 75.8148 199.539 76.8692 199.482 77.6386C199.41 78.4222 199.339 79.4623 199.254 80.7732C199.168 82.0555 199.182 83.3236 199.311 84.5632C199.425 85.76 199.696 86.7859 200.109 87.6123C200.451 88.2962 200.921 88.5669 201.648 88.4814C202.489 88.3817 203.173 87.94 203.758 87.0994C204.399 86.1875 204.927 85.1189 205.34 83.922C205.768 82.7109 206.067 81.4571 206.252 80.2317C206.438 78.9779 206.58 77.9805 206.651 77.2539C206.708 76.4132 206.78 75.2733 206.851 73.8628C206.922 72.4807 206.879 71.1271 206.737 69.8305C206.594 68.5767 206.309 67.4938 205.882 66.6247C205.597 66.012 205.169 65.7128 204.513 65.7128Z" fill="#1A1A1A"/>
<path d="M241.759 50.4672L243.227 77.0686L248.315 47.817L258.934 46.321L252.406 80.6877L249.898 83.4376L252.264 83.1099C252.235 83.7653 252.264 84.5062 252.335 85.3041C252.406 86.1162 252.534 86.8999 252.691 87.6408C252.862 88.3959 253.048 89.0656 253.276 89.6498C253.504 90.234 253.732 90.6472 253.96 90.9036L237.497 93.2261L236.029 76.0142L232.365 93.9528L219.851 95.7195L217.698 62.5782L220.193 59.8283L216.943 60.2842C216.971 59.6288 216.943 58.8879 216.872 58.09C216.8 57.2778 216.672 56.5084 216.515 55.7533C216.344 54.9981 216.159 54.3285 215.931 53.7443C215.703 53.1601 215.475 52.7469 215.247 52.4904L227.163 50.8091L228.517 79.1489L232.451 53.6873C232.209 52.7896 231.924 52.1912 231.596 51.9063L241.759 50.4672Z" fill="url(#paint19_linear_73_188)"/>
<path d="M219.366 96.3322L217.171 62.3929L218.824 60.5692L216.415 60.9111L216.444 60.27C216.472 59.643 216.444 58.9306 216.373 58.147C216.301 57.3633 216.187 56.5939 216.016 55.8673C215.859 55.1548 215.674 54.4994 215.46 53.9438C215.218 53.3026 215.004 53.0034 214.876 52.8609L214.177 52.1057L227.69 50.1965L228.816 73.82L231.923 53.7158C231.653 52.7469 231.396 52.4192 231.268 52.3052L230.398 51.5358L242.272 49.8545L243.512 72.3667L247.859 47.3468L259.604 45.694L252.905 80.9299L251.294 82.6967L252.82 82.4829L252.791 83.1241C252.763 83.7653 252.791 84.4777 252.862 85.2471C252.934 86.0307 253.048 86.7859 253.219 87.5268C253.375 88.2535 253.561 88.8946 253.775 89.4503C254.017 90.0915 254.231 90.3907 254.359 90.5332L255.072 91.2883L237.026 93.8388L235.829 79.7473L232.821 94.4372L219.366 96.3322ZM218.254 62.7634L220.349 95.1069L231.923 93.4683L236.257 72.267L237.996 92.6134L253.076 90.4904C252.976 90.3052 252.891 90.0772 252.791 89.835C252.563 89.2366 252.349 88.5384 252.178 87.7548C252.007 86.9854 251.879 86.1732 251.807 85.3468C251.75 84.7769 251.722 84.2212 251.722 83.7083L248.515 84.1642L251.907 80.4312L258.264 46.9479L248.771 48.2872L242.956 81.7705L241.26 51.0656L232.536 52.291C232.693 52.6187 232.85 53.0319 232.978 53.5163L233.007 53.6303L228.246 84.4492L226.664 51.3933L216.145 52.8751C216.244 53.0604 216.33 53.2883 216.43 53.5306C216.658 54.1432 216.871 54.8414 217.043 55.6108C217.214 56.3802 217.342 57.1923 217.413 58.0187C217.47 58.6029 217.499 59.1443 217.499 59.6573L221.589 59.0731L218.254 62.7634Z" fill="#1A1A1A"/>
<path d="M256.654 69.6596L266.56 71.2554C266.703 72.1815 266.959 72.9224 267.33 73.4923C267.7 74.0623 268.399 74.2902 269.425 74.162C270.409 74.048 271.207 73.7345 271.806 73.2359C272.404 72.7372 272.746 72.153 272.832 71.4976C272.889 70.9276 272.718 70.4147 272.333 70.0015C271.948 69.5741 271.392 69.1466 270.679 68.7192C269.967 68.2917 269.112 67.85 268.128 67.3941C267.13 66.9381 266.061 66.3825 264.907 65.7555C262.298 64.345 260.517 62.6209 259.533 60.5977C258.564 58.5744 258.207 56.138 258.478 53.2884C258.635 51.5928 259.105 49.9828 259.861 48.444C260.616 46.9052 261.628 45.5373 262.868 44.3262C264.108 43.1151 265.534 42.1177 267.145 41.3198C268.755 40.5219 270.437 40.0233 272.219 39.8095C273.844 39.6243 275.326 39.7525 276.68 40.2085C278.034 40.6644 279.217 41.3056 280.23 42.1177C281.242 42.9441 282.097 43.8845 282.781 44.9389C283.465 46.0075 283.95 47.0619 284.235 48.1305L275.155 57.748C275.269 56.7222 275.298 55.7248 275.226 54.7702C275.155 53.8155 274.97 52.9891 274.671 52.291C274.371 51.5928 273.944 51.0656 273.373 50.6952C272.818 50.3247 272.076 50.1965 271.164 50.3105C270.409 50.396 269.781 50.6524 269.268 51.0799C268.755 51.5073 268.399 51.9918 268.171 52.519C267.957 53.0604 267.914 53.6161 268.043 54.2145C268.171 54.8129 268.527 55.3258 269.097 55.739C269.71 56.195 270.48 56.6509 271.421 57.0926C272.347 57.5343 273.331 58.0188 274.357 58.5602C275.383 59.1016 276.395 59.6858 277.407 60.3127C278.419 60.9539 279.332 61.6948 280.13 62.5354C280.928 63.3761 281.541 64.345 281.968 65.4421C282.396 66.5392 282.553 67.7788 282.439 69.1751C282.239 71.2411 281.769 73.1646 281.013 74.9741C280.258 76.7694 279.275 78.351 278.049 79.7188C276.823 81.0866 275.397 82.198 273.758 83.0671C272.119 83.9363 270.352 84.4777 268.456 84.6914C266.959 84.8624 265.505 84.7342 264.123 84.2782C262.726 83.8223 261.514 83.1526 260.502 82.255C259.661 81.5711 258.963 80.7447 258.421 79.7758C257.865 78.8069 257.438 77.7525 257.153 76.6269C256.868 75.5013 256.682 74.333 256.625 73.1361C256.568 71.9393 256.554 70.8137 256.654 69.6596Z" fill="url(#paint20_linear_73_188)"/>
<path d="M267.202 85.3611C266.075 85.3611 264.992 85.1901 263.937 84.8481C262.483 84.378 261.201 83.6655 260.117 82.7109C259.248 82.0128 258.507 81.1294 257.922 80.0892C257.352 79.0776 256.91 77.9805 256.597 76.8122C256.297 75.658 256.112 74.4469 256.055 73.2216C255.998 72.0105 256.012 70.7994 256.126 69.6168L256.183 69.0469L267.045 70.7994L267.102 71.1841C267.23 72.0247 267.472 72.7087 267.786 73.2074C267.871 73.3498 268.156 73.7773 269.368 73.6348C270.252 73.5351 270.95 73.2643 271.478 72.8369C271.977 72.4237 272.247 71.9678 272.319 71.4406C272.361 71.0274 272.233 70.6854 271.948 70.372C271.592 69.9873 271.079 69.5883 270.423 69.1894C269.724 68.7762 268.883 68.3345 267.928 67.8928C266.931 67.4368 265.833 66.8811 264.664 66.2257C261.97 64.7724 260.089 62.9486 259.077 60.8399C258.065 58.7312 257.694 56.1807 257.965 53.2456C258.136 51.4931 258.621 49.7975 259.405 48.216C260.189 46.6344 261.229 45.1954 262.512 43.9558C263.795 42.7162 265.277 41.676 266.916 40.8496C268.57 40.0233 270.337 39.4961 272.162 39.2966C273.844 39.0971 275.426 39.2396 276.851 39.724C278.262 40.1942 279.503 40.8639 280.572 41.733C281.626 42.5879 282.524 43.5853 283.237 44.6824C283.95 45.7938 284.463 46.9194 284.762 48.0307L284.833 48.3157L275.241 58.4747C276.067 58.9164 276.894 59.4008 277.692 59.9138C278.747 60.5834 279.702 61.3528 280.515 62.222C281.356 63.1196 282.011 64.1455 282.467 65.2996C282.923 66.4679 283.094 67.793 282.966 69.2748C282.767 71.3836 282.268 73.3926 281.498 75.2306C280.728 77.0829 279.702 78.7214 278.448 80.132C277.193 81.5426 275.697 82.6967 274.001 83.5943C272.304 84.4919 270.466 85.0476 268.513 85.2756C268.057 85.3326 267.629 85.3611 267.202 85.3611ZM257.153 70.2865C257.096 71.2269 257.081 72.1957 257.124 73.1646C257.181 74.3187 257.352 75.4586 257.637 76.5414C257.908 77.6243 258.321 78.6359 258.849 79.5621C259.362 80.4739 260.032 81.2576 260.802 81.8845C261.785 82.7394 262.94 83.3948 264.251 83.8223C265.562 84.2497 266.945 84.378 268.37 84.207C270.195 83.9933 271.905 83.4661 273.487 82.6397C275.07 81.8133 276.452 80.7162 277.635 79.4053C278.818 78.0945 279.773 76.5414 280.5 74.8032C281.227 73.0649 281.698 71.1699 281.883 69.1609C281.997 67.85 281.84 66.6817 281.455 65.67C281.056 64.6442 280.472 63.7323 279.731 62.9344C278.975 62.1365 278.091 61.4098 277.122 60.7972C276.253 60.2557 275.369 59.7285 274.471 59.2583L274.428 59.3011V59.2441C274.314 59.1871 274.2 59.1301 274.086 59.0589C273.074 58.5317 272.105 58.0472 271.178 57.6056C270.223 57.1496 269.411 56.6794 268.769 56.2092C268.099 55.7105 267.672 55.0836 267.515 54.3712C267.358 53.673 267.415 52.9891 267.672 52.3622C267.914 51.7495 268.342 51.1939 268.912 50.7094C269.496 50.2107 270.238 49.9115 271.079 49.8118C272.105 49.6978 272.974 49.8545 273.63 50.282C274.286 50.6952 274.785 51.3221 275.127 52.1057C275.454 52.8609 275.654 53.7443 275.725 54.7559C275.768 55.2546 275.768 55.7818 275.754 56.309L283.593 48.0023C283.323 47.0904 282.881 46.1642 282.282 45.2381C281.626 44.2265 280.814 43.3288 279.845 42.5452C278.89 41.7758 277.749 41.1631 276.452 40.7214C275.184 40.294 273.758 40.1657 272.233 40.351C270.523 40.5504 268.883 41.0349 267.33 41.8043C265.776 42.5737 264.393 43.5568 263.196 44.7109C261.999 45.865 261.03 47.2044 260.303 48.6719C259.576 50.1395 259.12 51.7068 258.963 53.3311C258.706 56.0667 259.048 58.4319 259.975 60.3555C260.901 62.2647 262.626 63.9318 265.12 65.2711C266.275 65.9123 267.344 66.4537 268.313 66.8954C269.311 67.3513 270.195 67.8073 270.922 68.249C271.663 68.7049 272.262 69.1609 272.689 69.6168C273.188 70.1582 273.402 70.7994 273.331 71.5261C273.231 72.3382 272.817 73.0364 272.119 73.6348C271.435 74.2047 270.537 74.5467 269.454 74.6749C268.214 74.8174 267.344 74.5039 266.859 73.763C266.503 73.2216 266.246 72.5234 266.075 71.7113L257.153 70.2865ZM271.748 50.8661C271.577 50.8661 271.406 50.8804 271.221 50.8946C270.565 50.9659 270.038 51.1796 269.61 51.5501C269.169 51.9205 268.855 52.3337 268.67 52.7897C268.484 53.2313 268.456 53.673 268.57 54.1717C268.67 54.6419 268.955 55.0409 269.411 55.3828C269.995 55.8245 270.736 56.252 271.634 56.6794C272.561 57.1211 273.544 57.6056 274.556 58.147L274.599 57.748C274.713 56.7507 274.742 55.7818 274.67 54.8699C274.599 53.9865 274.428 53.2029 274.157 52.5617C273.901 51.9633 273.544 51.5073 273.06 51.2081C272.732 50.9801 272.276 50.8661 271.748 50.8661Z" fill="#1A1A1A"/>
</g>
<defs>
<linearGradient id="paint0_linear_73_188" x1="16.3604" y1="35.123" x2="16.3604" y2="81.0914" gradientUnits="userSpaceOnUse">
<stop stop-color="#DDFC0B"/>
<stop offset="0.5866" stop-color="#E06396"/>
<stop offset="1" stop-color="#E8388D"/>
</linearGradient>
<linearGradient id="paint1_linear_73_188" x1="43.798" y1="31.0937" x2="43.798" y2="76.9284" gradientUnits="userSpaceOnUse">
<stop stop-color="#DDFC0B"/>
<stop offset="0.5866" stop-color="#E06396"/>
<stop offset="1" stop-color="#E8388D"/>
</linearGradient>
<linearGradient id="paint2_linear_73_188" x1="71.9856" y1="26.0269" x2="71.9856" y2="70.8816" gradientUnits="userSpaceOnUse">
<stop stop-color="#DDFC0B"/>
<stop offset="0.5866" stop-color="#E06396"/>
<stop offset="1" stop-color="#E8388D"/>
</linearGradient>
<linearGradient id="paint3_linear_73_188" x1="98.9569" y1="18.9044" x2="98.9569" y2="66.611" gradientUnits="userSpaceOnUse">
<stop stop-color="#DDFC0B"/>
<stop offset="0.5866" stop-color="#E06396"/>
<stop offset="1" stop-color="#E8388D"/>
</linearGradient>
<linearGradient id="paint4_linear_73_188" x1="121.588" y1="15.8969" x2="121.588" y2="61.0285" gradientUnits="userSpaceOnUse">
<stop stop-color="#DDFC0B"/>
<stop offset="0.5866" stop-color="#E06396"/>
<stop offset="1" stop-color="#E8388D"/>
</linearGradient>
<linearGradient id="paint5_linear_73_188" x1="149.089" y1="9.275" x2="149.089" y2="58.6227" gradientUnits="userSpaceOnUse">
<stop stop-color="#DDFC0B"/>
<stop offset="0.5866" stop-color="#E06396"/>
<stop offset="1" stop-color="#E8388D"/>
</linearGradient>
<linearGradient id="paint6_linear_73_188" x1="179.938" y1="6.46969" x2="179.938" y2="51.5921" gradientUnits="userSpaceOnUse">
<stop stop-color="#DDFC0B"/>
<stop offset="0.5866" stop-color="#E06396"/>
<stop offset="1" stop-color="#E8388D"/>
</linearGradient>
<linearGradient id="paint7_linear_73_188" x1="209.259" y1="2.13722" x2="209.259" y2="46.9276" gradientUnits="userSpaceOnUse">
<stop stop-color="#DDFC0B"/>
<stop offset="0.5866" stop-color="#E06396"/>
<stop offset="1" stop-color="#E8388D"/>
</linearGradient>
<linearGradient id="paint8_linear_73_188" x1="16.6318" y1="35.7029" x2="16.6318" y2="81.6714" gradientUnits="userSpaceOnUse">
<stop stop-color="#DDFC0B"/>
<stop offset="0.5866" stop-color="#E06396"/>
<stop offset="1" stop-color="#E8388D"/>
</linearGradient>
<linearGradient id="paint9_linear_73_188" x1="44.0694" y1="31.6736" x2="44.0694" y2="77.5082" gradientUnits="userSpaceOnUse">
<stop stop-color="#DDFC0B"/>
<stop offset="0.5866" stop-color="#E06396"/>
<stop offset="1" stop-color="#E8388D"/>
</linearGradient>
<linearGradient id="paint10_linear_73_188" x1="72.257" y1="26.6067" x2="72.257" y2="71.4614" gradientUnits="userSpaceOnUse">
<stop stop-color="#DDFC0B"/>
<stop offset="0.5866" stop-color="#E06396"/>
<stop offset="1" stop-color="#E8388D"/>
</linearGradient>
<linearGradient id="paint11_linear_73_188" x1="99.2284" y1="19.4843" x2="99.2284" y2="67.1908" gradientUnits="userSpaceOnUse">
<stop stop-color="#DDFC0B"/>
<stop offset="0.5866" stop-color="#E06396"/>
<stop offset="1" stop-color="#E8388D"/>
</linearGradient>
<linearGradient id="paint12_linear_73_188" x1="121.859" y1="16.4768" x2="121.859" y2="61.6083" gradientUnits="userSpaceOnUse">
<stop stop-color="#DDFC0B"/>
<stop offset="0.5866" stop-color="#E06396"/>
<stop offset="1" stop-color="#E8388D"/>
</linearGradient>
<linearGradient id="paint13_linear_73_188" x1="149.361" y1="9.85493" x2="149.361" y2="59.2026" gradientUnits="userSpaceOnUse">
<stop stop-color="#DDFC0B"/>
<stop offset="0.5866" stop-color="#E06396"/>
<stop offset="1" stop-color="#E8388D"/>
</linearGradient>
<linearGradient id="paint14_linear_73_188" x1="180.21" y1="7.04958" x2="180.21" y2="52.172" gradientUnits="userSpaceOnUse">
<stop stop-color="#DDFC0B"/>
<stop offset="0.5866" stop-color="#E06396"/>
<stop offset="1" stop-color="#E8388D"/>
</linearGradient>
<linearGradient id="paint15_linear_73_188" x1="209.531" y1="2.71714" x2="209.531" y2="47.5076" gradientUnits="userSpaceOnUse">
<stop stop-color="#DDFC0B"/>
<stop offset="0.5866" stop-color="#E06396"/>
<stop offset="1" stop-color="#E8388D"/>
</linearGradient>
<linearGradient id="paint16_linear_73_188" x1="148.482" y1="112.486" x2="148.482" y2="68.1722" gradientUnits="userSpaceOnUse">
<stop stop-color="#E8388D"/>
<stop offset="0.4134" stop-color="#E06396"/>
<stop offset="1" stop-color="#DDFC0B"/>
</linearGradient>
<linearGradient id="paint17_linear_73_188" x1="175.384" y1="107.576" x2="175.384" y2="61.056" gradientUnits="userSpaceOnUse">
<stop stop-color="#E8388D"/>
<stop offset="0.4134" stop-color="#E06396"/>
<stop offset="1" stop-color="#DDFC0B"/>
</linearGradient>
<linearGradient id="paint18_linear_73_188" x1="203.066" y1="99.7629" x2="203.066" y2="54.5762" gradientUnits="userSpaceOnUse">
<stop stop-color="#E8388D"/>
<stop offset="0.4134" stop-color="#E06396"/>
<stop offset="1" stop-color="#DDFC0B"/>
</linearGradient>
<linearGradient id="paint19_linear_73_188" x1="237.1" y1="95.7157" x2="237.1" y2="46.3319" gradientUnits="userSpaceOnUse">
<stop stop-color="#E8388D"/>
<stop offset="0.4134" stop-color="#E06396"/>
<stop offset="1" stop-color="#DDFC0B"/>
</linearGradient>
<linearGradient id="paint20_linear_73_188" x1="270.394" y1="84.8241" x2="270.394" y2="39.7608" gradientUnits="userSpaceOnUse">
<stop stop-color="#E8388D"/>
<stop offset="0.4134" stop-color="#E06396"/>
<stop offset="1" stop-color="#DDFC0B"/>
</linearGradient>
<clipPath id="clip0_73_188">
<rect width="287" height="114" fill="white"/>
</clipPath>
</defs>
</svg>
